<svg xmlns="http://www.w3.org/2000/svg" width="37" height="37" fill="none">
  <g clip-path="url(#a)">
    <path fill="#88C78F" d="M17.927.152a1.156 1.156 0 0 1 1.146 0l8.672 4.956a1.157 1.157 0 0 1 .583 1.004v9.238l8.09 4.625a1.157 1.157 0 0 1 .582.999v9.911a1.157 1.157 0 0 1-.583 1.004l-8.672 4.956a1.156 1.156 0 0 1-1.147 0L18.5 32.22l-8.098 4.627a1.156 1.156 0 0 1-1.147 0L.583 31.891A1.156 1.156 0 0 1 0 30.888v-9.912a1.156 1.156 0 0 1 .583-1.003l8.089-4.623V6.112a1.156 1.156 0 0 1 .583-1.004L17.926.152Zm-8.099 17.2-6.34 3.624 6.34 3.624 6.341-3.624-6.34-3.623Zm7.516 5.618-6.36 3.633v7.247l6.36-3.633V22.97Zm2.312 7.247 6.36 3.633v-7.247l-6.36-3.633v7.247Zm1.175-9.24 6.34 3.623 6.342-3.624-6.341-3.623-6.341 3.623Zm5.185-5.627V8.103l-6.36 3.635v7.247l6.36-3.635Zm-8.672 3.635v-7.247l-6.36-3.635v7.247l6.36 3.635ZM12.159 6.112 18.5 9.735l6.34-3.623-6.34-3.624-6.34 3.624ZM34.687 22.97l-6.359 3.633v7.247l6.36-3.633V22.97ZM8.672 33.85v-7.247l-6.36-3.633v7.247l6.36 3.633Z"/>
  </g>
  <defs>
    <clipPath id="a">
      <path fill="#fff" d="M0 0h37v37H0z"/>
    </clipPath>
  </defs>
</svg>
