<svg width="18" height="18" viewBox="0 0 18 18" fill="none" xmlns="http://www.w3.org/2000/svg">
<path d="M8.46928 4.79408C8.17639 5.08698 8.17639 5.56185 8.46928 5.85474C8.76217 6.14764 9.23705 6.14764 9.52994 5.85474L8.46928 4.79408ZM13.2049 2.17974C13.4978 1.88685 13.4978 1.41198 13.2049 1.11908C12.912 0.826191 12.4372 0.826191 12.1443 1.11908L13.2049 2.17974ZM13.4246 1.64941C13.4246 1.2352 13.0888 0.899414 12.6746 0.899414C12.2604 0.899414 11.9246 1.2352 11.9246 1.64941L13.4246 1.64941ZM11.9246 16.3494C11.9246 16.7636 12.2604 17.0994 12.6746 17.0994C13.0888 17.0994 13.4246 16.7636 13.4246 16.3494L11.9246 16.3494ZM13.2049 1.11908C12.912 0.826191 12.4372 0.826191 12.1443 1.11908C11.8514 1.41198 11.8514 1.88685 12.1443 2.17974L13.2049 1.11908ZM15.8193 5.85474C16.1122 6.14764 16.587 6.14764 16.8799 5.85474C17.1728 5.56185 17.1728 5.08698 16.8799 4.79408L15.8193 5.85474ZM9.52994 13.2047C9.82283 12.9119 9.82283 12.437 9.52994 12.1441C9.23705 11.8512 8.76217 11.8512 8.46928 12.1441L9.52994 13.2047ZM4.79428 15.8191C4.50139 16.112 4.50139 16.5869 4.79428 16.8797C5.08717 17.1726 5.56205 17.1726 5.85494 16.8797L4.79428 15.8191ZM4.57461 16.3494C4.57461 16.7636 4.9104 17.0994 5.32461 17.0994C5.73882 17.0994 6.07461 16.7636 6.07461 16.3494L4.57461 16.3494ZM6.07461 1.64941C6.07461 1.2352 5.73882 0.899414 5.32461 0.899414C4.9104 0.899414 4.57461 1.2352 4.57461 1.64941L6.07461 1.64941ZM4.79428 16.8797C5.08717 17.1726 5.56205 17.1726 5.85494 16.8797C6.14783 16.5869 6.14783 16.112 5.85494 15.8191L4.79428 16.8797ZM2.17994 12.1441C1.88705 11.8512 1.41217 11.8512 1.11928 12.1441C0.826386 12.437 0.826386 12.9119 1.11928 13.2047L2.17994 12.1441ZM9.52994 5.85474L13.2049 2.17974L12.1443 1.11908L8.46928 4.79408L9.52994 5.85474ZM11.9246 1.64941L11.9246 16.3494L13.4246 16.3494L13.4246 1.64941L11.9246 1.64941ZM12.1443 2.17974L15.8193 5.85474L16.8799 4.79408L13.2049 1.11908L12.1443 2.17974ZM8.46928 12.1441L4.79428 15.8191L5.85494 16.8797L9.52994 13.2047L8.46928 12.1441ZM6.07461 16.3494L6.07461 1.64941L4.57461 1.64941L4.57461 16.3494L6.07461 16.3494ZM5.85494 15.8191L2.17994 12.1441L1.11928 13.2047L4.79428 16.8797L5.85494 15.8191Z" fill="#787878"/>
</svg>
