<svg xmlns="http://www.w3.org/2000/svg" width="37" height="31" fill="none">
  <path fill="#88C78F" d="M2.313 4.094A3.469 3.469 0 0 1 5.78.625h6.392c2.216 0 4.07 1.295 5.344 2.738.948 1.073 2.093 1.887 3.296 1.887h10.406a3.469 3.469 0 0 1 3.469 3.469v1.48a3.466 3.466 0 0 1 1.98 3.575l-1.48 11.85a5.78 5.78 0 0 1-5.743 5.064H7.553a5.781 5.781 0 0 1-5.738-5.065l-1.48-11.85A3.469 3.469 0 0 1 2.313 10.2V4.094Zm2.312 5.781h27.75V8.719a1.156 1.156 0 0 0-1.156-1.156H20.813c-2.23 0-3.955-1.455-5.028-2.67-1.045-1.183-2.326-1.955-3.612-1.955H5.781a1.156 1.156 0 0 0-1.156 1.156v5.781Zm-.849 2.313a1.154 1.154 0 0 0-1.147 1.3l1.48 11.848a3.469 3.469 0 0 0 3.444 3.039h21.895a3.469 3.469 0 0 0 3.443-3.039l1.48-11.849a1.154 1.154 0 0 0-1.147-1.3H3.776Z"/>
</svg>
