<svg width="184" height="410" fill="none" xmlns="http://www.w3.org/2000/svg"><path d="M46.7 377.1c-.6-.7-2-2.3-2.5-3.5l-1-3-2-1.5v-2.5c0-2.4-1-3.7-1.5-4v-8c0-.3.7-1.5 3.5-3.5 3.5-2.5 6-3 6-4.5v-6c0-1 .4-3.5 2-5.5a79.5 79.5 0 0 1 9.5-9.5c1.5-1 2.5-4.5 2.5-8s.5-5.5-4.5-5.5c-4 0-5.3-1.3-5.5-2l-5-4.5c-.8-1.3-2.2-5-1-9 1.2-4 4.9-6.7 6.5-7.5l1.5-1.5 1.5-1.5h.5l1.5-1 .5 1h2.5l1-.5c.2-.3.4-1 0-1s-.8-.3-1-.5c-.3-.5-.9-1.5-.5-1.5s1.5-1 2-1.5l2-1.5v-3.5l-1-1 .5-2v-1c0-.4-.3-1.2-.5-1.5v-1c0-.4 1-1.2 1.5-1.5l1-3.5 5-3-5-3.5 3.5-3 2 .5.5 1.5 2 2.5 3-.5c.5-.2 1.5-1.1 1.5-3.5s-.3-3.3-.5-3.5l-1-1.5h-1.5c-.1.2-.6.5-1 .5s-1.1.3-1.5.5l1 1v1.5l-2.7 1c-.2-.4-.9-1.3-1.3-1.5l-2-1.5-2.5-2v-2.7c0-1 0-3.2-.5-4.8l-1-4.5-.5-3c0-.5.6-1.3 3-.5l6 2 3 1.5c.4.3 1.2 1 2 1h3.5l2.5-1 2.5-1 2-1.5 1.5-1.5c.2-.3.5-1.1.5-1.5 0-.5.5-1.5 0-1.5-.4 0-.8-.7-1-1-.5-.7-1.4-2.2-1-3 .4-.8.9-1 1-1l.5-2.5.5-1 2-2v-4.5c0-.3-.3-1-1.5-1-1.5 0-1-1-1-2.5 0-1.2.7-2.5 1-3 .5.7 2 2 4 2l12.5-.5c6.9-1.2 21.1-4 23.5-6l4.5-4 .5-2.5 3-4 2-3 2.5-2 .5-2.5.5-6-4-1c-.6-.5-2-2.1-2-4.5s.4-3.3.5-3.5l1.5-3c.2-.8 0-2.8-2.5-4a36.8 36.8 0 0 1-5-3l-4-3-2-2 1-2c0-.3.1-1.1.5-1.5.4-.4-.1-2.5-.5-3.5v-6.5l.5-3c0-.4 1.4-.8 2-1l1-2.5-.5-4-.5-1.5 1-1.5v-1c-.5-1-1.4-3.1-1-3.5.4-.4 1.9-1.2 2.5-1.5-.3-.7-.8-2.4 0-4s1.4-3 1.5-3.5v-2c-.1-.5-.4-1.6 0-2 .5-.5 2-.5 2-1l-.5-2.5c-.5-.3-1.4-1.1-1-1.5l1.5-1.5c.5-.5 3-3.5 4.5-5a8.8 8.8 0 0 0 2-3l2.5-1 2.5-2.5c.5-.5 1.5-1.6 1.5-2 0-.4 1.7-1.8 2.5-2.5l1.5-2 1-2c-.3-.3-.5-1.3 1.5-2.5a21 21 0 0 0 3.5-2.5v-1.5l1.5.5 2.5-2.5c1-1 3.5-2.5 4-2.5s1.5-1.5 2.5-1.5 3-1.5 3.5-1.5 3.5-1 4-1 2.5-1 2.5-1.5 1.5-3.5 1.5-4.5v-4.5l1-2a5 5 0 0 0-.5-2c-.5-1-1.5-2.5-1.5-3s.5-6-3-5c-2.8.8-2.8 1-2.5 1h-2l-1 1v3c-.1.2-.5.6-.5 1v2.5c0 .4-.6 2.2-1 3-.3.7-1 2-1.5 2a1 1 0 0 0-1 1c0 .4-.6 1.2-1 1.5h-1.5c-.5 0-1.6.1-2 .5l-1 1c-.3 0-1 .1-1 .5l-.5 2v.5c0 .5 0 .5-.5 1s-.5 1-1 1-1.5 0-2.5-.5l-2-1-1 1-1 1-1 .5-2-.5-1-.5-4.5.5-7.5-2c0-.2-.2-.5-1-.5-1 0 0 .5-2.5 0-2-.4-3.1-.5-3.5-.5-.8-.2-2.4-.7-2-1.5l1.5-2.5c.5-.5 1.5-1.6 1.5-2 0-.4.4-.8.5-1 .4 0 1-.1 1-.5 0-.5.5-2 .5-3v-1c-.3-.2-.6-.8 1-2a7.3 7.3 0 0 0 2.5-3c.2-.2.5-.6.5-1 0-.5 0-1 .5-1.5s.5-1 1-1c.4 0 1.2-.7 1.5-1 .2-.2.4-.6 0-1-.5-.5-.5-1.5-1-2l-1.5-1.5c-1-1-6.5-3-6.5-3.5s-1.5-.5-2.5-1l-2.5-1.5c-1-.5-2.5-.5-3.5-1.5s-1.5-2-2-2.5-1-.5-1.5-1-2-1.5-3-2-2.5-.5-3-1c-.4-.4-2.8-.8-4-1l-4-2c-.3-.2-1-.5-1.5-.5h-1.5c-.4 0-.5-.7-.5-1-.1-.2-.5-.6-.5-1 0-.5-.5-1-1-1-.4 0-1.1-.3-1.5-.5l-1.5-1c-.3-.5-1-1.6-1.5-2-.5-.5-1-1.5-1.5-1.5s-3-1.5-3-2-.5 0-1-1-1.5-.5-1.5-1.5v-2.5l-3-2.5c-.5-.5-1-.5-1.5-1s-2.5-.5-2.5-1.5c0-.8-.3-1.3-.5-1.5h-8.5l-1 1.5-1-2-1.5.5-1.5 2.5c-.1.3-.5 1.1-.5 1.5 0 .5 0 1-.5 1.5-.4.4-.8 1.2-1 1.5-.1.3-.6 1.1-1 1.5-.4.4-.8-1.5-1-2.5.2-.3.4-1 0-1s-.8-.7-1-1c-.1-.2-.5-.6-.5-1 0-.5 0-.5-.5-1s-1-.5-1.5-.5h-12c-.6 0-2-.2-2-1 0-1 0-1.5-.5-1.5-.4 0-1.1-.7-1.5-1-.5-.5-1.5-1.4-1.5-1 0 .5-.5 1.5-.5 2s0 1.5-.5 2-2 1.5-2.5 1.5-2 .5-2.5 1c-.4.4-.5 1.2-.5 1.5 0 .2 0 .6-.5 1l-1 1-1 1.5-.5 1v2l1 .5c.2 0 .5.2.5 1v4c0 1 0 .5-.5 1.5l-1 2-.5 1c-.5 1-1 1-1 2 0 .8-1 1.3-1.5 1.5l-.5 1.5-9.5 5.5-2 3c.2-.2.5-.3.5.5 0 1 0 1 .5 1.5l1 1c.2.3.4 1.1 0 1.5l-1 1-.5 1.5v2.5c0 2.5-.5 2.5 0 3s1 0 1.5 2.5c.4 2-.1 3.5-.5 4-.3.2-1 .6-1 1 0 .5 1.5 2 1.5 2.7 0 .8 0 .3 1 1.3s2 1.5 2 2v1c-.1.3-.6 1.1-1 1.5-.5.5-1.5 1.5-2 1.5h-1.5c-.5 0-1 0-1.5.5s-2 5-2 5.5 0 3-.5 3.5l-2.5 2.5-1.5 1.5-1.5 2c-.5.5-1 2.5-1 3s-.5.5 0 1 0 2 0 2.5c0 .4-1.3 3.2-2 4.5v3c0 .5.5 2 1 3.5s.5 3.5 1 4c.4.4.5 1.2.5 1.5-.1.7-.6 2-1 2-.5 0-1.5.5-2 1.5s-.5.5-1 2 0 1.5 0 2.5v1.5c0 .5 0 1.5-.5 2s-1 .5-1.5 1l-1.5 2 2 5c0 .5.1 1.6.5 2 .5.5 0 0 1 .5s2-1 2 0c0 .8-.6 2-1 2.5l-.5 1 1.5 1v1.5c0 .5-.5.5 0 1s1 1 1 1.5-.5.5 0 1c.4.4 1.9.5 2.5.5l.5 1.5c-.6.3-1.9 1.1-1.5 1.5.4.4.2 1.5 0 2l.5.5c.5.5 1.5 0 1.5.5s1 0 1 .5-.5.5-.5 1v1.5c0 .4-.3 1.2-.5 1.5l1.5 5.5-1.5 2.5c0-.2 0-.3-.5.5l-1.5 3v1c0 .5-.5 1-.5 1.5s-.5 1-.5 1.5v1.5c0 .4-.3 1.2-.5 1.5-.6.3-1.8 1.2-1 2s1.7 2.3 2 3v1.5c.2.2.5.6.5 1 0 .5-.5.5-.5 1.5s0 1 .5 1.5.5 1.5 0 1.5-1.5 1-2 1-1 0-1.5.5 0 1-.5 1.5-.5 1.5-1 1.5-1 0-1 .5l-.5 3c0 .5 1 4 1 4.5s.5 1 0 2c-.4.8-.5 2-.5 2.5-.1.3-.4 1.1 0 1.5.5.5 1.5 1.5 1.5 2s.5 1 .5 1.5 0 .5.5 1.5 1 1 1.5 2.5 1 1.5 1 2v1c0 .5 0 1-.5 2s0 1-1 1.5-1.5.5-2 1l-1 1v8.5c0 1-2 1-2 1.5v1.5c0 1.5-1 2.5-.5 3s.5-.5.5 1-.5 1.5-.5 2.5v4.5c0 .5-.5 2.5 0 3l1 1c.5 1 .5 2.5.5 3v5.5l1 2c.2.2.6.7 1 1.5.5 1 .5 1.5 0 1.5s-2.5.5-2.5 1-.5 1-.5 1.5-.5 2 0 2.5 1 4 1 4.5c0 1.6.7 2.3 1 2.5.4.3 1.1 1 1.5 1 .4 0 .9.7 1 1l-1 1.5c0 .8.4 1.3.5 1.5l1 1 1 2v1c-.6.5-1.8 1.6-1 2 .4 1.6.5 3 .5 3.5l.5 1 6 1v4l-7-.5-.5 2c.2.2.7.5 1.5.5a5 5 0 0 1 2 .5c.2.5.7 1.6 1.5 2 .8 1.2.7 2.5.5 3l-.5 1.5-1 1v1.5l.5 1c0 .2.1.6.5 1s-.1 2.5-.5 3.5l-.5.5c.7.5 2.1 2 2.5 4 .4 2-.5 3.2-1 3.5l-1.5 1.5c.2.2.5.6.5 1 0 .5-.5 1 0 1.5.4 1.2-.1 1.8-.5 2l-1 2c0 .3 0 1.1-.5 1.5-.5.5-1 3-1 4 0 .8.4 1.7.5 2l1.5 1c.2.3.5 1.1.5 1.5a13 13 0 0 1-1.5 3.5v2.5l.5.5-1.5 2-2 2.5v2.5c-.1.3-.6 1.1-1 1.5-.4.4-1.1.8-1.5 1-.1.2-.5.7-.5 1.5 0 1-.5 1 0 2s0 1.5.5 2 .5 1.5.5 2 0 1.5.5 2 .5 1 1 1.5l1 1 1 1c.5.5.5 1 .5 1.5s.5 1 1 1c.4 0 1.9-1 2.5-1.5h2c.5 0 .5-2 1-2s1 1 1 1.5v3.5c.2 0 .4.2 0 1s-.1 1.7 0 2c0 .5.1 1.5.5 1.5.5 0 0 .5.5 1 .4.4.2 1.2 0 1.5v.5l1 1 1 1c.5.5 1.5 1.6 1.5 2 0 .5.5 1.5 2.5 1s3.5-1 4-1h10.5c.4-.3 1.2-.8 2 0s3 1 4 1l1.5 1h2.5ZM46 385l-.5-3c.7 0 2.1.1 2.5.5.5.5.5 1.5.5 2.5 0 .8.7 1.3 1 1.5.3.8 1.1 2.9 1.5 4.5.5 2 1.5 1.5 1.5 2s1 .5 2 2.5 3 2 3.5 2 1 0 2 1 1 .5 2 1.5c.8.8 1.7 2 2 2.5.8.3 2.8 1 4 1h2c1 0 3 .2 3 1 0 1-.5 1.5-3 3-2 .5-1 .5-3.5 1s-3 0-4 0-4-.5-7.5-.5c-2.5 0-1.5 0-4 .5-2 .4-2.5-.2-2.5-.5a5 5 0 0 1-.5-2v-4.5c0-.5 0-2.5-.5-4s-.5-3-1-4 .5-2 .5-2.5l-.5-2-.5-2.5V385ZM105.5 366.5l-1 .5c.8.5 2.7 1.5 3.5 1.5.8 0 1.3.7 1.5 1h5.5c.3-.5 1-1.6 1-2 0-.4.7-.5 1-.5l2-1.5c.5-.5.5-1.5.5-2s.5-.5 2-2.5 1.5-1.5 2.5-2.5c.8-.8-.3-.7-1-.5-.3 0-1.1.1-1.5.5-.4.4-1.2.5-1.5.5l-.5-.5H116l-1 1c-.5.5-.5.5-1 0-.4-.4-1.2-.5-1.5-.5-.5-.2-1.7-.5-2.5-.5h-1l.5.5c.5.2 1.7.7 2.5 1.5 1 1 2.5 1 2.5 1.5 0 .4-.7.8-1 1h-2c-.5 0 0 1.5-.5 2.5s-1 .5-1.5.5h-4v.5ZM120 366.5v1.5c0 .2.1.7.5 1.5s1.2 1 1.5 1c.3 0 1-.1 1-.5 0-.5 0-.5-.5-1-.4-.4-.2-.8 0-1l1 1c.7 0 2-.1 2-.5-.5 0-.5-.5-1-1s0-1 0-1.5 1 .5 1.5 1 1.5 0 2 0c.4 0 .8.3 1 .5h2c.2-.2.5-.6.5-1 0-.5-.5-1-1.5-1.5s-2-.5-2.5-.5c-.4 0-.8-.3-1-.5l-.5-2c-.7.4-2.2 1.4-3 1.5-1 .2-1 1-1.5 1.5s-1.5 1-1.5 1.5ZM127 359l-.5-.5h1.5c-.2-.2-.5-.6-.5-1s.3-1.2.5-1.5l.5.5h2c.8.2 2.7.7 3.5 1.5 0 .5-.5.5-1 .5s0 1 .5 1.5 2 .5 2.5 0c0-.5-.5-1.5 0-2 .4-.4.8-.5 1-.5h2c.5 0 1 .5 1 1s.5 1 .5 1.5-1 0-1.5-.5-.5.2-.5.5v1h1.5c.5 0 1 .5 1 .8 0 .4-.5 0-1 .7s-1 .5-1.5.5-1.5.5-2 1-3 0-5-.5c-.4-.4-.8-.2-1 0-.8-.2-2.6-.6-3-1-.5-.5 0-.5-.5-.7a.7.7 0 0 1-.5-.6l-.5-.7v-.5h1v-1Z" stroke="#191A1D"/></svg>