<svg id="pin" width="24" height="24" viewBox="0 0 24 24" fill="none" xmlns="http://www.w3.org/2000/svg">

<path fillRule="evenodd" clipRule="evenodd" d="M17.0602 5.18442C18.4905 6.5587 19.3 8.46398 19.3 10.4563C19.3 12.4486 18.4905 14.3539 17.0602 15.7282L11.6501 21L6.23986 15.7282C4.80949 14.3539 4 12.4486 4 10.4563C4 8.46398 4.80949 6.5587 6.23986 5.18442C9.26835 2.27186 14.0316 2.27186 17.0602 5.18442Z" stroke="#7D7D7D" strokeWidth="1.5" strokeLlinecap="round" strokeLinejoin="round"/>
<path fillRule="evenodd" clipRule="evenodd" d="M14.7097 9.99919C14.6986 10.8063 14.37 11.5761 13.7961 12.1389C13.2222 12.7017 12.45 13.0116 11.6495 13.0003C10.849 13.0116 10.077 12.7017 9.50306 12.1389C8.9291 11.5761 8.60044 10.8063 8.58936 9.99919C8.61314 8.31868 9.98313 6.97572 11.6495 6.99933C13.3159 6.97572 14.686 8.31868 14.7097 9.99919Z" stroke="#7D7D7D" strokeWidth="1.5" strokeLinecap="round" strokeLinejoin="round"/>

</svg>
