<svg width="37" height="31" viewBox="0 0 37 31" fill="none" xmlns="http://www.w3.org/2000/svg">
<path d="M2.31264 4.09375C2.31264 3.17378 2.6781 2.29149 3.32861 1.64097C3.97913 0.990457 4.86142 0.625 5.78139 0.625H12.1731C14.3885 0.625 16.2431 1.92 17.5173 3.363C18.4655 4.436 19.6101 5.25 20.8126 5.25H31.2189C32.1389 5.25 33.0211 5.61546 33.6717 6.26597C34.3222 6.91649 34.6876 7.79878 34.6876 8.71875V10.1987C36.0058 10.8116 36.8614 12.2245 36.6671 13.7739L35.1871 25.6231C35.0123 27.0223 34.3321 28.3093 33.2746 29.242C32.2172 30.1747 30.8552 30.6888 29.4452 30.6875H7.55276C6.14352 30.6877 4.78274 30.1731 3.72622 29.2405C2.6697 28.3079 1.9902 27.0215 1.81545 25.6231L0.335452 13.7739C0.244277 13.0454 0.38658 12.3068 0.741879 11.6644C1.09718 11.0219 1.64715 10.5088 2.31264 10.1987V4.09375ZM4.62514 9.875H32.3751V8.71875C32.3751 8.41209 32.2533 8.118 32.0365 7.90116C31.8196 7.68432 31.5255 7.5625 31.2189 7.5625H20.8126C18.5834 7.5625 16.8583 6.10794 15.7853 4.89388C14.74 3.70987 13.4589 2.9375 12.1731 2.9375H5.78139C5.47473 2.9375 5.18064 3.05932 4.9638 3.27616C4.74696 3.493 4.62514 3.78709 4.62514 4.09375V9.875ZM3.77645 12.1875C3.61253 12.1875 3.4505 12.2224 3.3011 12.2899C3.15169 12.3573 3.01833 12.4557 2.90987 12.5786C2.8014 12.7015 2.72031 12.8461 2.67196 13.0027C2.62362 13.1594 2.60913 13.3245 2.62945 13.4871L4.10945 25.3364C4.21432 26.1756 4.62215 26.9475 5.25626 27.5071C5.89036 28.0667 6.70706 28.3753 7.55276 28.375H29.4475C30.2932 28.3753 31.1099 28.0667 31.744 27.5071C32.3781 26.9475 32.786 26.1756 32.8908 25.3364L34.3708 13.4871C34.3912 13.3245 34.3767 13.1594 34.3283 13.0027C34.28 12.8461 34.1989 12.7015 34.0904 12.5786C33.9819 12.4557 33.8486 12.3573 33.6992 12.2899C33.5498 12.2224 33.3877 12.1875 33.2238 12.1875H3.77645Z" fill="#88C78F"/>
</svg>
