<svg width="38" height="34" viewBox="0 0 38 34" fill="none" xmlns="http://www.w3.org/2000/svg">
<path d="M19.6986 4.02446C20.4438 3.21467 21.8721 2.67482 22.4932 2.50611C22.9589 2.33741 24.4493 2 26.6849 2C28.9205 2 32.5845 3.34964 34.137 4.02446C35.6274 4.42935 36 5.20539 36 5.5428V23.7629C36 25.1126 36 28.2167 36 29.8363C36 31.8607 36 31.3546 35.5342 31.8607C35.1616 32.2656 34.4475 31.692 34.137 31.3546L33.2055 30.8485C31.653 30.3424 27.989 29.3302 25.7534 29.3302C22.9589 29.3302 21.0959 30.3424 20.1644 31.3546C20.0084 31.5241 19.8524 31.6369 19.6986 31.7047M19.6986 4.02446C18.9224 3.34964 16.6247 2 13.6438 2C10.663 2 8.05479 2.67482 7.12329 3.01223L5.26027 3.51834C2.54839 4.5 2 5.7115 2 6.55503V30.8485C2.15525 31.5233 2.93151 32.5693 4.79452 31.3546C6.65753 30.14 10.2283 29.4989 11.7808 29.3302C12.8676 29.1615 15.6 29.2289 17.8356 30.8485C18.2234 31.2699 18.934 32.0421 19.6986 31.7047M19.6986 4.02446V31.7047" stroke="#88C78F" stroke-width="3"/>
</svg>
