<svg width="25" height="24" viewBox="0 0 25 24" fill="none" xmlns="http://www.w3.org/2000/svg">
<path d="M7.77393 10.5C6.9455 10.5 6.27393 11.1716 6.27393 12C6.27393 12.8284 6.9455 13.5 7.77393 13.5V10.5ZM12.7739 13.5C13.6024 13.5 14.2739 12.8284 14.2739 12C14.2739 11.1716 13.6024 10.5 12.7739 10.5V13.5ZM12.7739 10.5C11.9455 10.5 11.2739 11.1716 11.2739 12C11.2739 12.8284 11.9455 13.5 12.7739 13.5V10.5ZM17.7739 13.5C18.6024 13.5 19.2739 12.8284 19.2739 12C19.2739 11.1716 18.6024 10.5 17.7739 10.5V13.5ZM14.2739 12C14.2739 11.1716 13.6024 10.5 12.7739 10.5C11.9455 10.5 11.2739 11.1716 11.2739 12H14.2739ZM11.2739 17C11.2739 17.8284 11.9455 18.5 12.7739 18.5C13.6024 18.5 14.2739 17.8284 14.2739 17H11.2739ZM11.2739 12C11.2739 12.8284 11.9455 13.5 12.7739 13.5C13.6024 13.5 14.2739 12.8284 14.2739 12H11.2739ZM14.2739 7C14.2739 6.17157 13.6024 5.5 12.7739 5.5C11.9455 5.5 11.2739 6.17157 11.2739 7H14.2739ZM7.77393 13.5H12.7739V10.5H7.77393V13.5ZM12.7739 13.5H17.7739V10.5H12.7739V13.5ZM12.7739 12H11.2739C11.2739 12 11.2739 12 11.2739 12C11.2739 12 11.2739 12 11.2739 12C11.2739 12 11.2739 12 11.2739 12C11.2739 12 11.2739 12 11.2739 12C11.2739 12 11.2739 12 11.2739 12C11.2739 12 11.2739 12 11.2739 12C11.2739 12 11.2739 12 11.2739 12C11.2739 12 11.2739 12 11.2739 12C11.2739 12 11.2739 12 11.2739 12C11.2739 12 11.2739 12 11.2739 12C11.2739 12.0001 11.2739 12.0001 11.2739 12.0001C11.2739 12.0001 11.2739 12.0001 11.2739 12.0001C11.2739 12.0001 11.2739 12.0001 11.2739 12.0001C11.2739 12.0001 11.2739 12.0001 11.2739 12.0001C11.2739 12.0001 11.2739 12.0001 11.2739 12.0002C11.2739 12.0002 11.2739 12.0002 11.2739 12.0002C11.2739 12.0002 11.2739 12.0002 11.2739 12.0002C11.2739 12.0002 11.2739 12.0002 11.2739 12.0003C11.2739 12.0003 11.2739 12.0003 11.2739 12.0003C11.2739 12.0003 11.2739 12.0003 11.2739 12.0003C11.2739 12.0004 11.2739 12.0004 11.2739 12.0004C11.2739 12.0004 11.2739 12.0004 11.2739 12.0005C11.2739 12.0005 11.2739 12.0005 11.2739 12.0005C11.2739 12.0005 11.2739 12.0006 11.2739 12.0006C11.2739 12.0006 11.2739 12.0006 11.2739 12.0007C11.2739 12.0007 11.2739 12.0007 11.2739 12.0007C11.2739 12.0008 11.2739 12.0008 11.2739 12.0008C11.2739 12.0008 11.2739 12.0009 11.2739 12.0009C11.2739 12.0009 11.2739 12.001 11.2739 12.001C11.2739 12.001 11.2739 12.0011 11.2739 12.0011C11.2739 12.0011 11.2739 12.0012 11.2739 12.0012C11.2739 12.0013 11.2739 12.0013 11.2739 12.0013C11.2739 12.0014 11.2739 12.0014 11.2739 12.0015C11.2739 12.0015 11.2739 12.0016 11.2739 12.0016C11.2739 12.0016 11.2739 12.0017 11.2739 12.0017C11.2739 12.0018 11.2739 12.0018 11.2739 12.0019C11.2739 12.0019 11.2739 12.002 11.2739 12.002C11.2739 12.0021 11.2739 12.0022 11.2739 12.0022C11.2739 12.0023 11.2739 12.0023 11.2739 12.0024C11.2739 12.0024 11.2739 12.0025 11.2739 12.0026C11.2739 12.0026 11.2739 12.0027 11.2739 12.0028C11.2739 12.0028 11.2739 12.0029 11.2739 12.003C11.2739 12.003 11.2739 12.0031 11.2739 12.0032C11.2739 12.0032 11.2739 12.0033 11.2739 12.0034C11.2739 12.0035 11.2739 12.0035 11.2739 12.0036C11.2739 12.0037 11.2739 12.0038 11.2739 12.0039C11.2739 12.004 11.2739 12.004 11.2739 12.0041C11.2739 12.0042 11.2739 12.0043 11.2739 12.0044C11.2739 12.0045 11.2739 12.0046 11.2739 12.0047C11.2739 12.0047 11.2739 12.0048 11.2739 12.0049C11.2739 12.005 11.2739 12.0051 11.2739 12.0052C11.2739 12.0053 11.2739 12.0054 11.2739 12.0055C11.2739 12.0057 11.2739 12.0058 11.2739 12.0059C11.2739 12.006 11.2739 12.0061 11.2739 12.0062C11.2739 12.0063 11.2739 12.0064 11.2739 12.0065C11.2739 12.0067 11.2739 12.0068 11.2739 12.0069C11.2739 12.007 11.2739 12.0071 11.2739 12.0073C11.2739 12.0074 11.2739 12.0075 11.2739 12.0077C11.2739 12.0078 11.2739 12.0079 11.2739 12.008C11.2739 12.0082 11.2739 12.0083 11.2739 12.0085C11.2739 12.0086 11.2739 12.0087 11.2739 12.0089C11.2739 12.009 11.2739 12.0092 11.2739 12.0093C11.2739 12.0095 11.2739 12.0096 11.2739 12.0098C11.2739 12.0099 11.2739 12.0101 11.2739 12.0102C11.2739 12.0104 11.2739 12.0105 11.2739 12.0107C11.2739 12.0109 11.2739 12.011 11.2739 12.0112C11.2739 12.0114 11.2739 12.0115 11.2739 12.0117C11.2739 12.0119 11.2739 12.0121 11.2739 12.0122C11.2739 12.0124 11.2739 12.0126 11.2739 12.0128C11.2739 12.013 11.2739 12.0131 11.2739 12.0133C11.2739 12.0135 11.2739 12.0137 11.2739 12.0139C11.2739 12.0141 11.2739 12.0143 11.2739 12.0145C11.2739 12.0147 11.2739 12.0149 11.2739 12.0151C11.2739 12.0153 11.2739 12.0155 11.2739 12.0157C11.2739 12.0159 11.2739 12.0161 11.2739 12.0164C11.2739 12.0166 11.2739 12.0168 11.2739 12.017C11.2739 12.0172 11.2739 12.0175 11.2739 12.0177C11.2739 12.0179 11.2739 12.0181 11.2739 12.0184C11.2739 12.0186 11.2739 12.0188 11.2739 12.0191C11.2739 12.0193 11.2739 12.0196 11.2739 12.0198C11.2739 12.02 11.2739 12.0203 11.2739 12.0205C11.2739 12.0208 11.2739 12.021 11.2739 12.0213C11.2739 12.0216 11.2739 12.0218 11.2739 12.0221C11.2739 12.0223 11.2739 12.0226 11.2739 12.0229C11.2739 12.0231 11.2739 12.0234 11.2739 12.0237C11.2739 12.024 11.2739 12.0242 11.2739 12.0245C11.2739 12.0248 11.2739 12.0251 11.2739 12.0254C11.2739 12.0257 11.2739 12.026 11.2739 12.0263C11.2739 12.0266 11.2739 12.0269 11.2739 12.0272C11.2739 12.0275 11.2739 12.0278 11.2739 12.0281C11.2739 12.0284 11.2739 12.0287 11.2739 12.029C11.2739 12.0293 11.2739 12.0296 11.2739 12.03C11.2739 12.0303 11.2739 12.0306 11.2739 12.0309C11.2739 12.0313 11.2739 12.0316 11.2739 12.0319C11.2739 12.0323 11.2739 12.0326 11.2739 12.033C11.2739 12.0333 11.2739 12.0336 11.2739 12.034C11.2739 12.0344 11.2739 12.0347 11.2739 12.0351C11.2739 12.0354 11.2739 12.0358 11.2739 12.0361C11.2739 12.0365 11.2739 12.0369 11.2739 12.0373C11.2739 12.0376 11.2739 12.038 11.2739 12.0384C11.2739 12.0388 11.2739 12.0391 11.2739 12.0395C11.2739 12.0399 11.2739 12.0403 11.2739 12.0407C11.2739 12.0411 11.2739 12.0415 11.2739 12.0419C11.2739 12.0423 11.2739 12.0427 11.2739 12.0431C11.2739 12.0435 11.2739 12.044 11.2739 12.0444C11.2739 12.0448 11.2739 12.0452 11.2739 12.0456C11.2739 12.0461 11.2739 12.0465 11.2739 12.0469C11.2739 12.0474 11.2739 12.0478 11.2739 12.0482C11.2739 12.0487 11.2739 12.0491 11.2739 12.0496C11.2739 12.05 11.2739 12.0505 11.2739 12.0509C11.2739 12.0514 11.2739 12.0519 11.2739 12.0523C11.2739 12.0528 11.2739 12.0533 11.2739 12.0538C11.2739 12.0542 11.2739 12.0547 11.2739 12.0552C11.2739 12.0557 11.2739 12.0562 11.2739 12.0567C11.2739 12.0571 11.2739 12.0576 11.2739 12.0581C11.2739 12.0586 11.2739 12.0592 11.2739 12.0597C11.2739 12.0602 11.2739 12.0607 11.2739 12.0612C11.2739 12.0617 11.2739 12.0622 11.2739 12.0628C11.2739 12.0633 11.2739 12.0638 11.2739 12.0644C11.2739 12.0649 11.2739 12.0655 11.2739 12.066C11.2739 12.0665 11.2739 12.0671 11.2739 12.0676C11.2739 12.0682 11.2739 12.0688 11.2739 12.0693C11.2739 12.0699 11.2739 12.0705 11.2739 12.071C11.2739 12.0716 11.2739 12.0722 11.2739 12.0728C11.2739 12.0733 11.2739 12.0739 11.2739 12.0745C11.2739 12.0751 11.2739 12.0757 11.2739 12.0763C11.2739 12.0769 11.2739 12.0775 11.2739 12.0781C11.2739 12.0787 11.2739 12.0794 11.2739 12.08C11.2739 12.0806 11.2739 12.0812 11.2739 12.0818C11.2739 12.0825 11.2739 12.0831 11.2739 12.0837C11.2739 12.0844 11.2739 12.085 11.2739 12.0857C11.2739 12.0863 11.2739 12.087 11.2739 12.0876C11.2739 12.0883 11.2739 12.089 11.2739 12.0896C11.2739 12.0903 11.2739 12.091 11.2739 12.0917C11.2739 12.0923 11.2739 12.093 11.2739 12.0937C11.2739 12.0944 11.2739 12.0951 11.2739 12.0958C11.2739 12.0965 11.2739 12.0972 11.2739 12.0979C11.2739 12.0986 11.2739 12.0993 11.2739 12.1C11.2739 12.1008 11.2739 12.1015 11.2739 12.1022C11.2739 12.103 11.2739 12.1037 11.2739 12.1044C11.2739 12.1052 11.2739 12.1059 11.2739 12.1067C11.2739 12.1074 11.2739 12.1082 11.2739 12.1089C11.2739 12.1097 11.2739 12.1105 11.2739 12.1112C11.2739 12.112 11.2739 12.1128 11.2739 12.1136C11.2739 12.1144 11.2739 12.1151 11.2739 12.1159C11.2739 12.1167 11.2739 12.1175 11.2739 12.1183C11.2739 12.1191 11.2739 12.12 11.2739 12.1208C11.2739 12.1216 11.2739 12.1224 11.2739 12.1232C11.2739 12.1241 11.2739 12.1249 11.2739 12.1257C11.2739 12.1266 11.2739 12.1274 11.2739 12.1283C11.2739 12.1291 11.2739 12.13 11.2739 12.1308C11.2739 12.1317 11.2739 12.1326 11.2739 12.1334C11.2739 12.1343 11.2739 12.1352 11.2739 12.1361C11.2739 12.1369 11.2739 12.1378 11.2739 12.1387C11.2739 12.1396 11.2739 12.1405 11.2739 12.1414C11.2739 12.1423 11.2739 12.1432 11.2739 12.1442C11.2739 12.1451 11.2739 12.146 11.2739 12.1469C11.2739 12.1479 11.2739 12.1488 11.2739 12.1497C11.2739 12.1507 11.2739 12.1516 11.2739 12.1526C11.2739 12.1535 11.2739 12.1545 11.2739 12.1555C11.2739 12.1564 11.2739 12.1574 11.2739 12.1584C11.2739 12.1594 11.2739 12.1603 11.2739 12.1613C11.2739 12.1623 11.2739 12.1633 11.2739 12.1643C11.2739 12.1653 11.2739 12.1663 11.2739 12.1673C11.2739 12.1684 11.2739 12.1694 11.2739 12.1704C11.2739 12.1714 11.2739 12.1725 11.2739 12.1735C11.2739 12.1745 11.2739 12.1756 11.2739 12.1766C11.2739 12.1777 11.2739 12.1787 11.2739 12.1798C11.2739 12.1809 11.2739 12.1819 11.2739 12.183C11.2739 12.1841 11.2739 12.1852 11.2739 12.1863C11.2739 12.1874 11.2739 12.1885 11.2739 12.1896C11.2739 12.1907 11.2739 12.1918 11.2739 12.1929C11.2739 12.194 11.2739 12.1951 11.2739 12.1962C11.2739 12.1974 11.2739 12.1985 11.2739 12.1997C11.2739 12.2008 11.2739 12.2019 11.2739 12.2031C11.2739 12.2042 11.2739 12.2054 11.2739 12.2066C11.2739 12.2077 11.2739 12.2089 11.2739 12.2101C11.2739 12.2113 11.2739 12.2125 11.2739 12.2137C11.2739 12.2149 11.2739 12.2161 11.2739 12.2173C11.2739 12.2185 11.2739 12.2197 11.2739 12.2209C11.2739 12.2221 11.2739 12.2233 11.2739 12.2246C11.2739 12.2258 11.2739 12.2271 11.2739 12.2283C11.2739 12.2296 11.2739 12.2308 11.2739 12.2321C11.2739 12.2333 11.2739 12.2346 11.2739 12.2359C11.2739 12.2371 11.2739 12.2384 11.2739 12.2397C11.2739 12.241 11.2739 12.2423 11.2739 12.2436C11.2739 12.2449 11.2739 12.2462 11.2739 12.2475C11.2739 12.2488 11.2739 12.2502 11.2739 12.2515C11.2739 12.2528 11.2739 12.2542 11.2739 12.2555C11.2739 12.2569 11.2739 12.2582 11.2739 12.2596C11.2739 12.2609 11.2739 12.2623 11.2739 12.2637C11.2739 12.265 11.2739 12.2664 11.2739 12.2678C11.2739 12.2692 11.2739 12.2706 11.2739 12.272C11.2739 12.2734 11.2739 12.2748 11.2739 12.2762C11.2739 12.2776 11.2739 12.2791 11.2739 12.2805C11.2739 12.2819 11.2739 12.2834 11.2739 12.2848C11.2739 12.2863 11.2739 12.2877 11.2739 12.2892C11.2739 12.2906 11.2739 12.2921 11.2739 12.2936C11.2739 12.2951 11.2739 12.2965 11.2739 12.298C11.2739 12.2995 11.2739 12.301 11.2739 12.3025C11.2739 12.304 11.2739 12.3055 11.2739 12.3071C11.2739 12.3086 11.2739 12.3101 11.2739 12.3116C11.2739 12.3132 11.2739 12.3147 11.2739 12.3163C11.2739 12.3178 11.2739 12.3194 11.2739 12.3209C11.2739 12.3225 11.2739 12.3241 11.2739 12.3257C11.2739 12.3272 11.2739 12.3288 11.2739 12.3304C11.2739 12.332 11.2739 12.3336 11.2739 12.3352C11.2739 12.3368 11.2739 12.3385 11.2739 12.3401C11.2739 12.3417 11.2739 12.3434 11.2739 12.345C11.2739 12.3466 11.2739 12.3483 11.2739 12.35C11.2739 12.3516 11.2739 12.3533 11.2739 12.355C11.2739 12.3566 11.2739 12.3583 11.2739 12.36C11.2739 12.3617 11.2739 12.3634 11.2739 12.3651C11.2739 12.3668 11.2739 12.3685 11.2739 12.3702C11.2739 12.372 11.2739 12.3737 11.2739 12.3754C11.2739 12.3772 11.2739 12.3789 11.2739 12.3807C11.2739 12.3824 11.2739 12.3842 11.2739 12.3859C11.2739 12.3877 11.2739 12.3895 11.2739 12.3913C11.2739 12.3931 11.2739 12.3949 11.2739 12.3967C11.2739 12.3985 11.2739 12.4003 11.2739 12.4021C11.2739 12.4039 11.2739 12.4057 11.2739 12.4076C11.2739 12.4094 11.2739 12.4113 11.2739 12.4131C11.2739 12.415 11.2739 12.4168 11.2739 12.4187C11.2739 12.4206 11.2739 12.4224 11.2739 12.4243C11.2739 12.4262 11.2739 12.4281 11.2739 12.43C11.2739 12.4319 11.2739 12.4338 11.2739 12.4358C11.2739 12.4377 11.2739 12.4396 11.2739 12.4415C11.2739 12.4435 11.2739 12.4454 11.2739 12.4474C11.2739 12.4493 11.2739 12.4513 11.2739 12.4533C11.2739 12.4552 11.2739 12.4572 11.2739 12.4592C11.2739 12.4612 11.2739 12.4632 11.2739 12.4652C11.2739 12.4672 11.2739 12.4692 11.2739 12.4712C11.2739 12.4732 11.2739 12.4753 11.2739 12.4773C11.2739 12.4794 11.2739 12.4814 11.2739 12.4835C11.2739 12.4855 11.2739 12.4876 11.2739 12.4897C11.2739 12.4917 11.2739 12.4938 11.2739 12.4959C11.2739 12.498 11.2739 12.5001 11.2739 12.5022C11.2739 12.5043 11.2739 12.5064 11.2739 12.5086C11.2739 12.5107 11.2739 12.5128 11.2739 12.515C11.2739 12.5171 11.2739 12.5193 11.2739 12.5214C11.2739 12.5236 11.2739 12.5258 11.2739 12.528C11.2739 12.5301 11.2739 12.5323 11.2739 12.5345C11.2739 12.5367 11.2739 12.5389 11.2739 12.5412C11.2739 12.5434 11.2739 12.5456 11.2739 12.5478C11.2739 12.5501 11.2739 12.5523 11.2739 12.5546C11.2739 12.5568 11.2739 12.5591 11.2739 12.5614C11.2739 12.5636 11.2739 12.5659 11.2739 12.5682C11.2739 12.5705 11.2739 12.5728 11.2739 12.5751C11.2739 12.5774 11.2739 12.5797 11.2739 12.5821C11.2739 12.5844 11.2739 12.5867 11.2739 12.5891C11.2739 12.5914 11.2739 12.5938 11.2739 12.5962C11.2739 12.5985 11.2739 12.6009 11.2739 12.6033C11.2739 12.6057 11.2739 12.6081 11.2739 12.6105C11.2739 12.6129 11.2739 12.6153 11.2739 12.6177C11.2739 12.6201 11.2739 12.6226 11.2739 12.625C11.2739 12.6274 11.2739 12.6299 11.2739 12.6324C11.2739 12.6348 11.2739 12.6373 11.2739 12.6398C11.2739 12.6422 11.2739 12.6447 11.2739 12.6472C11.2739 12.6497 11.2739 12.6522 11.2739 12.6548C11.2739 12.6573 11.2739 12.6598 11.2739 12.6623C11.2739 12.6649 11.2739 12.6674 11.2739 12.67C11.2739 12.6725 11.2739 12.6751 11.2739 12.6777C11.2739 12.6803 11.2739 12.6828 11.2739 12.6854C11.2739 12.688 11.2739 12.6906 11.2739 12.6933C11.2739 12.6959 11.2739 12.6985 11.2739 12.7011C11.2739 12.7038 11.2739 12.7064 11.2739 12.7091C11.2739 12.7117 11.2739 12.7144 11.2739 12.7171C11.2739 12.7198 11.2739 12.7224 11.2739 12.7251C11.2739 12.7278 11.2739 12.7305 11.2739 12.7332C11.2739 12.736 11.2739 12.7387 11.2739 12.7414C11.2739 12.7442 11.2739 12.7469 11.2739 12.7497C11.2739 12.7524 11.2739 12.7552 11.2739 12.758C11.2739 12.7607 11.2739 12.7635 11.2739 12.7663C11.2739 12.7691 11.2739 12.7719 11.2739 12.7747C11.2739 12.7776 11.2739 12.7804 11.2739 12.7832C11.2739 12.7861 11.2739 12.7889 11.2739 12.7918C11.2739 12.7946 11.2739 12.7975 11.2739 12.8004C11.2739 12.8033 11.2739 12.8061 11.2739 12.809C11.2739 12.8119 11.2739 12.8149 11.2739 12.8178C11.2739 12.8207 11.2739 12.8236 11.2739 12.8266C11.2739 12.8295 11.2739 12.8325 11.2739 12.8354C11.2739 12.8384 11.2739 12.8414 11.2739 12.8443C11.2739 12.8473 11.2739 12.8503 11.2739 12.8533C11.2739 12.8563 11.2739 12.8593 11.2739 12.8624C11.2739 12.8654 11.2739 12.8684 11.2739 12.8715C11.2739 12.8745 11.2739 12.8776 11.2739 12.8807C11.2739 12.8837 11.2739 12.8868 11.2739 12.8899C11.2739 12.893 11.2739 12.8961 11.2739 12.8992C11.2739 12.9023 11.2739 12.9054 11.2739 12.9086C11.2739 12.9117 11.2739 12.9148 11.2739 12.918C11.2739 12.9211 11.2739 12.9243 11.2739 12.9275C11.2739 12.9307 11.2739 12.9339 11.2739 12.9371C11.2739 12.9402 11.2739 12.9435 11.2739 12.9467C11.2739 12.9499 11.2739 12.9531 11.2739 12.9564C11.2739 12.9596 11.2739 12.9629 11.2739 12.9661C11.2739 12.9694 11.2739 12.9727 11.2739 12.976C11.2739 12.9792 11.2739 12.9825 11.2739 12.9858C11.2739 12.9892 11.2739 12.9925 11.2739 12.9958C11.2739 12.9991 11.2739 13.0025 11.2739 13.0058C11.2739 13.0092 11.2739 13.0125 11.2739 13.0159C11.2739 13.0193 11.2739 13.0227 11.2739 13.0261C11.2739 13.0295 11.2739 13.0329 11.2739 13.0363C11.2739 13.0397 11.2739 13.0432 11.2739 13.0466C11.2739 13.05 11.2739 13.0535 11.2739 13.057C11.2739 13.0604 11.2739 13.0639 11.2739 13.0674C11.2739 13.0709 11.2739 13.0744 11.2739 13.0779C11.2739 13.0814 11.2739 13.0849 11.2739 13.0885C11.2739 13.092 11.2739 13.0955 11.2739 13.0991C11.2739 13.1027 11.2739 13.1062 11.2739 13.1098C11.2739 13.1134 11.2739 13.117 11.2739 13.1206C11.2739 13.1242 11.2739 13.1278 11.2739 13.1314C11.2739 13.135 11.2739 13.1387 11.2739 13.1423C11.2739 13.146 11.2739 13.1496 11.2739 13.1533C11.2739 13.157 11.2739 13.1607 11.2739 13.1644C11.2739 13.1681 11.2739 13.1718 11.2739 13.1755C11.2739 13.1792 11.2739 13.1829 11.2739 13.1867C11.2739 13.1904 11.2739 13.1942 11.2739 13.198C11.2739 13.2017 11.2739 13.2055 11.2739 13.2093C11.2739 13.2131 11.2739 13.2169 11.2739 13.2207C11.2739 13.2245 11.2739 13.2283 11.2739 13.2322C11.2739 13.236 11.2739 13.2399 11.2739 13.2437C11.2739 13.2476 11.2739 13.2515 11.2739 13.2554C11.2739 13.2592 11.2739 13.2631 11.2739 13.2671C11.2739 13.271 11.2739 13.2749 11.2739 13.2788C11.2739 13.2828 11.2739 13.2867 11.2739 13.2907C11.2739 13.2946 11.2739 13.2986 11.2739 13.3026C11.2739 13.3066 11.2739 13.3106 11.2739 13.3146C11.2739 13.3186 11.2739 13.3226 11.2739 13.3266C11.2739 13.3307 11.2739 13.3347 11.2739 13.3388C11.2739 13.3428 11.2739 13.3469 11.2739 13.351C11.2739 13.355 11.2739 13.3591 11.2739 13.3632C11.2739 13.3674 11.2739 13.3715 11.2739 13.3756C11.2739 13.3797 11.2739 13.3839 11.2739 13.388C11.2739 13.3922 11.2739 13.3964 11.2739 13.4005C11.2739 13.4047 11.2739 13.4089 11.2739 13.4131C11.2739 13.4173 11.2739 13.4215 11.2739 13.4258C11.2739 13.43 11.2739 13.4342 11.2739 13.4385C11.2739 13.4428 11.2739 13.447 11.2739 13.4513C11.2739 13.4556 11.2739 13.4599 11.2739 13.4642C11.2739 13.4685 11.2739 13.4728 11.2739 13.4771C11.2739 13.4815 11.2739 13.4858 11.2739 13.4902C11.2739 13.4945 11.2739 13.4989 11.2739 13.5033C11.2739 13.5077 11.2739 13.5121 11.2739 13.5165C11.2739 13.5209 11.2739 13.5253 11.2739 13.5297C11.2739 13.5342 11.2739 13.5386 11.2739 13.5431C11.2739 13.5475 11.2739 13.552 11.2739 13.5565C11.2739 13.561 11.2739 13.5655 11.2739 13.57C11.2739 13.5745 11.2739 13.579 11.2739 13.5836C11.2739 13.5881 11.2739 13.5927 11.2739 13.5972C11.2739 13.6018 11.2739 13.6064 11.2739 13.6109C11.2739 13.6155 11.2739 13.6201 11.2739 13.6248C11.2739 13.6294 11.2739 13.634 11.2739 13.6386C11.2739 13.6433 11.2739 13.6479 11.2739 13.6526C11.2739 13.6573 11.2739 13.662 11.2739 13.6667C11.2739 13.6713 11.2739 13.6761 11.2739 13.6808C11.2739 13.6855 11.2739 13.6902 11.2739 13.695C11.2739 13.6997 11.2739 13.7045 11.2739 13.7093C11.2739 13.714 11.2739 13.7188 11.2739 13.7236C11.2739 13.7284 11.2739 13.7332 11.2739 13.7381C11.2739 13.7429 11.2739 13.7477 11.2739 13.7526C11.2739 13.7575 11.2739 13.7623 11.2739 13.7672C11.2739 13.7721 11.2739 13.777 11.2739 13.7819C11.2739 13.7868 11.2739 13.7917 11.2739 13.7967C11.2739 13.8016 11.2739 13.8065 11.2739 13.8115C11.2739 13.8165 11.2739 13.8214 11.2739 13.8264C11.2739 13.8314 11.2739 13.8364 11.2739 13.8414C11.2739 13.8465 11.2739 13.8515 11.2739 13.8565C11.2739 13.8616 11.2739 13.8666 11.2739 13.8717C11.2739 13.8768 11.2739 13.8819 11.2739 13.887C11.2739 13.8921 11.2739 13.8972 11.2739 13.9023C11.2739 13.9074 11.2739 13.9126 11.2739 13.9177C11.2739 13.9229 11.2739 13.9281 11.2739 13.9332C11.2739 13.9384 11.2739 13.9436 11.2739 13.9488C11.2739 13.954 11.2739 13.9593 11.2739 13.9645C11.2739 13.9697 11.2739 13.975 11.2739 13.9803C11.2739 13.9855 11.2739 13.9908 11.2739 13.9961C11.2739 14.0014 11.2739 14.0067 11.2739 14.012C11.2739 14.0174 11.2739 14.0227 11.2739 14.028C11.2739 14.0334 11.2739 14.0388 11.2739 14.0441C11.2739 14.0495 11.2739 14.0549 11.2739 14.0603C11.2739 14.0657 11.2739 14.0712 11.2739 14.0766C11.2739 14.082 11.2739 14.0875 11.2739 14.0929C11.2739 14.0984 11.2739 14.1039 11.2739 14.1094C11.2739 14.1149 11.2739 14.1204 11.2739 14.1259C11.2739 14.1314 11.2739 14.137 11.2739 14.1425C11.2739 14.1481 11.2739 14.1536 11.2739 14.1592C11.2739 14.1648 11.2739 14.1704 11.2739 14.176C11.2739 14.1816 11.2739 14.1872 11.2739 14.1929C11.2739 14.1985 11.2739 14.2041 11.2739 14.2098C11.2739 14.2155 11.2739 14.2212 11.2739 14.2268C11.2739 14.2325 11.2739 14.2383 11.2739 14.244C11.2739 14.2497 11.2739 14.2554 11.2739 14.2612C11.2739 14.2669 11.2739 14.2727 11.2739 14.2785C11.2739 14.2843 11.2739 14.2901 11.2739 14.2959C11.2739 14.3017 11.2739 14.3075 11.2739 14.3134C11.2739 14.3192 11.2739 14.3251 11.2739 14.3309C11.2739 14.3368 11.2739 14.3427 11.2739 14.3486C11.2739 14.3545 11.2739 14.3604 11.2739 14.3663C11.2739 14.3723 11.2739 14.3782 11.2739 14.3842C11.2739 14.3901 11.2739 14.3961 11.2739 14.4021C11.2739 14.4081 11.2739 14.4141 11.2739 14.4201C11.2739 14.4261 11.2739 14.4322 11.2739 14.4382C11.2739 14.4443 11.2739 14.4503 11.2739 14.4564C11.2739 14.4625 11.2739 14.4686 11.2739 14.4747C11.2739 14.4808 11.2739 14.487 11.2739 14.4931C11.2739 14.4992 11.2739 14.5054 11.2739 14.5116C11.2739 14.5177 11.2739 14.5239 11.2739 14.5301C11.2739 14.5363 11.2739 14.5425 11.2739 14.5488C11.2739 14.555 11.2739 14.5612 11.2739 14.5675C11.2739 14.5738 11.2739 14.58 11.2739 14.5863C11.2739 14.5926 11.2739 14.5989 11.2739 14.6053C11.2739 14.6116 11.2739 14.6179 11.2739 14.6243C11.2739 14.6306 11.2739 14.637 11.2739 14.6434C11.2739 14.6498 11.2739 14.6562 11.2739 14.6626C11.2739 14.669 11.2739 14.6754 11.2739 14.6819C11.2739 14.6883 11.2739 14.6948 11.2739 14.7013C11.2739 14.7077 11.2739 14.7142 11.2739 14.7208C11.2739 14.7273 11.2739 14.7338 11.2739 14.7403C11.2739 14.7469 11.2739 14.7534 11.2739 14.76C11.2739 14.7666 11.2739 14.7732 11.2739 14.7798C11.2739 14.7864 11.2739 14.793 11.2739 14.7996C11.2739 14.8062 11.2739 14.8129 11.2739 14.8196C11.2739 14.8262 11.2739 14.8329 11.2739 14.8396C11.2739 14.8463 11.2739 14.853 11.2739 14.8597C11.2739 14.8665 11.2739 14.8732 11.2739 14.88C11.2739 14.8867 11.2739 14.8935 11.2739 14.9003C11.2739 14.9071 11.2739 14.9139 11.2739 14.9207C11.2739 14.9276 11.2739 14.9344 11.2739 14.9413C11.2739 14.9481 11.2739 14.955 11.2739 14.9619C11.2739 14.9688 11.2739 14.9757 11.2739 14.9826C11.2739 14.9895 11.2739 14.9964 11.2739 15.0034C11.2739 15.0103 11.2739 15.0173 11.2739 15.0243C11.2739 15.0313 11.2739 15.0383 11.2739 15.0453C11.2739 15.0523 11.2739 15.0593 11.2739 15.0664C11.2739 15.0734 11.2739 15.0805 11.2739 15.0876C11.2739 15.0947 11.2739 15.1018 11.2739 15.1089C11.2739 15.116 11.2739 15.1231 11.2739 15.1303C11.2739 15.1374 11.2739 15.1446 11.2739 15.1518C11.2739 15.1589 11.2739 15.1661 11.2739 15.1734C11.2739 15.1806 11.2739 15.1878 11.2739 15.195C11.2739 15.2023 11.2739 15.2095 11.2739 15.2168C11.2739 15.2241 11.2739 15.2314 11.2739 15.2387C11.2739 15.246 11.2739 15.2533 11.2739 15.2607C11.2739 15.268 11.2739 15.2754 11.2739 15.2828C11.2739 15.2901 11.2739 15.2975 11.2739 15.3049C11.2739 15.3124 11.2739 15.3198 11.2739 15.3272C11.2739 15.3347 11.2739 15.3421 11.2739 15.3496C11.2739 15.3571 11.2739 15.3646 11.2739 15.3721C11.2739 15.3796 11.2739 15.3871 11.2739 15.3947C11.2739 15.4022 11.2739 15.4098 11.2739 15.4174C11.2739 15.4249 11.2739 15.4325 11.2739 15.4401C11.2739 15.4477 11.2739 15.4554 11.2739 15.463C11.2739 15.4707 11.2739 15.4783 11.2739 15.486C11.2739 15.4937 11.2739 15.5014 11.2739 15.5091C11.2739 15.5168 11.2739 15.5245 11.2739 15.5323C11.2739 15.54 11.2739 15.5478 11.2739 15.5556C11.2739 15.5633 11.2739 15.5711 11.2739 15.579C11.2739 15.5868 11.2739 15.5946 11.2739 15.6025C11.2739 15.6103 11.2739 15.6182 11.2739 15.626C11.2739 15.6339 11.2739 15.6418 11.2739 15.6497C11.2739 15.6577 11.2739 15.6656 11.2739 15.6736C11.2739 15.6815 11.2739 15.6895 11.2739 15.6975C11.2739 15.7054 11.2739 15.7134 11.2739 15.7215C11.2739 15.7295 11.2739 15.7375 11.2739 15.7456C11.2739 15.7536 11.2739 15.7617 11.2739 15.7698C11.2739 15.7779 11.2739 15.786 11.2739 15.7941C11.2739 15.8022 11.2739 15.8104 11.2739 15.8185C11.2739 15.8267 11.2739 15.8349 11.2739 15.8431C11.2739 15.8513 11.2739 15.8595 11.2739 15.8677C11.2739 15.8759 11.2739 15.8842 11.2739 15.8924C11.2739 15.9007 11.2739 15.909 11.2739 15.9173C11.2739 15.9256 11.2739 15.9339 11.2739 15.9422C11.2739 15.9506 11.2739 15.9589 11.2739 15.9673C11.2739 15.9757 11.2739 15.9841 11.2739 15.9925C11.2739 16.0009 11.2739 16.0093 11.2739 16.0177C11.2739 16.0262 11.2739 16.0346 11.2739 16.0431C11.2739 16.0516 11.2739 16.0601 11.2739 16.0686C11.2739 16.0771 11.2739 16.0856 11.2739 16.0942C11.2739 16.1027 11.2739 16.1113 11.2739 16.1199C11.2739 16.1285 11.2739 16.1371 11.2739 16.1457C11.2739 16.1543 11.2739 16.1629 11.2739 16.1716C11.2739 16.1802 11.2739 16.1889 11.2739 16.1976C11.2739 16.2063 11.2739 16.215 11.2739 16.2237C11.2739 16.2325 11.2739 16.2412 11.2739 16.25C11.2739 16.2587 11.2739 16.2675 11.2739 16.2763C11.2739 16.2851 11.2739 16.2939 11.2739 16.3028C11.2739 16.3116 11.2739 16.3204 11.2739 16.3293C11.2739 16.3382 11.2739 16.3471 11.2739 16.356C11.2739 16.3649 11.2739 16.3738 11.2739 16.3828C11.2739 16.3917 11.2739 16.4007 11.2739 16.4097C11.2739 16.4186 11.2739 16.4276 11.2739 16.4367C11.2739 16.4457 11.2739 16.4547 11.2739 16.4638C11.2739 16.4728 11.2739 16.4819 11.2739 16.491C11.2739 16.5001 11.2739 16.5092 11.2739 16.5183C11.2739 16.5274 11.2739 16.5366 11.2739 16.5457C11.2739 16.5549 11.2739 16.5641 11.2739 16.5733C11.2739 16.5825 11.2739 16.5917 11.2739 16.601C11.2739 16.6102 11.2739 16.6195 11.2739 16.6287C11.2739 16.638 11.2739 16.6473 11.2739 16.6566C11.2739 16.6659 11.2739 16.6753 11.2739 16.6846C11.2739 16.694 11.2739 16.7033 11.2739 16.7127C11.2739 16.7221 11.2739 16.7315 11.2739 16.7409C11.2739 16.7504 11.2739 16.7598 11.2739 16.7693C11.2739 16.7787 11.2739 16.7882 11.2739 16.7977C11.2739 16.8072 11.2739 16.8167 11.2739 16.8263C11.2739 16.8358 11.2739 16.8454 11.2739 16.8549C11.2739 16.8645 11.2739 16.8741 11.2739 16.8837C11.2739 16.8933 11.2739 16.903 11.2739 16.9126C11.2739 16.9223 11.2739 16.9319 11.2739 16.9416C11.2739 16.9513 11.2739 16.961 11.2739 16.9708C11.2739 16.9805 11.2739 16.9902 11.2739 17H14.2739C14.2739 16.9902 14.2739 16.9805 14.2739 16.9708C14.2739 16.961 14.2739 16.9513 14.2739 16.9416C14.2739 16.9319 14.2739 16.9223 14.2739 16.9126C14.2739 16.903 14.2739 16.8933 14.2739 16.8837C14.2739 16.8741 14.2739 16.8645 14.2739 16.8549C14.2739 16.8454 14.2739 16.8358 14.2739 16.8263C14.2739 16.8167 14.2739 16.8072 14.2739 16.7977C14.2739 16.7882 14.2739 16.7787 14.2739 16.7693C14.2739 16.7598 14.2739 16.7504 14.2739 16.7409C14.2739 16.7315 14.2739 16.7221 14.2739 16.7127C14.2739 16.7033 14.2739 16.694 14.2739 16.6846C14.2739 16.6753 14.2739 16.6659 14.2739 16.6566C14.2739 16.6473 14.2739 16.638 14.2739 16.6287C14.2739 16.6195 14.2739 16.6102 14.2739 16.601C14.2739 16.5917 14.2739 16.5825 14.2739 16.5733C14.2739 16.5641 14.2739 16.5549 14.2739 16.5457C14.2739 16.5366 14.2739 16.5274 14.2739 16.5183C14.2739 16.5092 14.2739 16.5001 14.2739 16.491C14.2739 16.4819 14.2739 16.4728 14.2739 16.4638C14.2739 16.4547 14.2739 16.4457 14.2739 16.4367C14.2739 16.4276 14.2739 16.4186 14.2739 16.4097C14.2739 16.4007 14.2739 16.3917 14.2739 16.3828C14.2739 16.3738 14.2739 16.3649 14.2739 16.356C14.2739 16.3471 14.2739 16.3382 14.2739 16.3293C14.2739 16.3204 14.2739 16.3116 14.2739 16.3028C14.2739 16.2939 14.2739 16.2851 14.2739 16.2763C14.2739 16.2675 14.2739 16.2587 14.2739 16.25C14.2739 16.2412 14.2739 16.2325 14.2739 16.2237C14.2739 16.215 14.2739 16.2063 14.2739 16.1976C14.2739 16.1889 14.2739 16.1802 14.2739 16.1716C14.2739 16.1629 14.2739 16.1543 14.2739 16.1457C14.2739 16.1371 14.2739 16.1285 14.2739 16.1199C14.2739 16.1113 14.2739 16.1027 14.2739 16.0942C14.2739 16.0856 14.2739 16.0771 14.2739 16.0686C14.2739 16.0601 14.2739 16.0516 14.2739 16.0431C14.2739 16.0346 14.2739 16.0262 14.2739 16.0177C14.2739 16.0093 14.2739 16.0009 14.2739 15.9925C14.2739 15.9841 14.2739 15.9757 14.2739 15.9673C14.2739 15.9589 14.2739 15.9506 14.2739 15.9422C14.2739 15.9339 14.2739 15.9256 14.2739 15.9173C14.2739 15.909 14.2739 15.9007 14.2739 15.8924C14.2739 15.8842 14.2739 15.8759 14.2739 15.8677C14.2739 15.8595 14.2739 15.8513 14.2739 15.8431C14.2739 15.8349 14.2739 15.8267 14.2739 15.8185C14.2739 15.8104 14.2739 15.8022 14.2739 15.7941C14.2739 15.786 14.2739 15.7779 14.2739 15.7698C14.2739 15.7617 14.2739 15.7536 14.2739 15.7456C14.2739 15.7375 14.2739 15.7295 14.2739 15.7215C14.2739 15.7134 14.2739 15.7054 14.2739 15.6975C14.2739 15.6895 14.2739 15.6815 14.2739 15.6736C14.2739 15.6656 14.2739 15.6577 14.2739 15.6497C14.2739 15.6418 14.2739 15.6339 14.2739 15.626C14.2739 15.6182 14.2739 15.6103 14.2739 15.6025C14.2739 15.5946 14.2739 15.5868 14.2739 15.579C14.2739 15.5711 14.2739 15.5633 14.2739 15.5556C14.2739 15.5478 14.2739 15.54 14.2739 15.5323C14.2739 15.5245 14.2739 15.5168 14.2739 15.5091C14.2739 15.5014 14.2739 15.4937 14.2739 15.486C14.2739 15.4783 14.2739 15.4707 14.2739 15.463C14.2739 15.4554 14.2739 15.4477 14.2739 15.4401C14.2739 15.4325 14.2739 15.4249 14.2739 15.4174C14.2739 15.4098 14.2739 15.4022 14.2739 15.3947C14.2739 15.3871 14.2739 15.3796 14.2739 15.3721C14.2739 15.3646 14.2739 15.3571 14.2739 15.3496C14.2739 15.3421 14.2739 15.3347 14.2739 15.3272C14.2739 15.3198 14.2739 15.3124 14.2739 15.3049C14.2739 15.2975 14.2739 15.2901 14.2739 15.2828C14.2739 15.2754 14.2739 15.268 14.2739 15.2607C14.2739 15.2533 14.2739 15.246 14.2739 15.2387C14.2739 15.2314 14.2739 15.2241 14.2739 15.2168C14.2739 15.2095 14.2739 15.2023 14.2739 15.195C14.2739 15.1878 14.2739 15.1806 14.2739 15.1734C14.2739 15.1661 14.2739 15.1589 14.2739 15.1518C14.2739 15.1446 14.2739 15.1374 14.2739 15.1303C14.2739 15.1231 14.2739 15.116 14.2739 15.1089C14.2739 15.1018 14.2739 15.0947 14.2739 15.0876C14.2739 15.0805 14.2739 15.0734 14.2739 15.0664C14.2739 15.0593 14.2739 15.0523 14.2739 15.0453C14.2739 15.0383 14.2739 15.0313 14.2739 15.0243C14.2739 15.0173 14.2739 15.0103 14.2739 15.0034C14.2739 14.9964 14.2739 14.9895 14.2739 14.9826C14.2739 14.9757 14.2739 14.9688 14.2739 14.9619C14.2739 14.955 14.2739 14.9481 14.2739 14.9413C14.2739 14.9344 14.2739 14.9276 14.2739 14.9207C14.2739 14.9139 14.2739 14.9071 14.2739 14.9003C14.2739 14.8935 14.2739 14.8867 14.2739 14.88C14.2739 14.8732 14.2739 14.8665 14.2739 14.8597C14.2739 14.853 14.2739 14.8463 14.2739 14.8396C14.2739 14.8329 14.2739 14.8262 14.2739 14.8196C14.2739 14.8129 14.2739 14.8062 14.2739 14.7996C14.2739 14.793 14.2739 14.7864 14.2739 14.7798C14.2739 14.7732 14.2739 14.7666 14.2739 14.76C14.2739 14.7534 14.2739 14.7469 14.2739 14.7403C14.2739 14.7338 14.2739 14.7273 14.2739 14.7208C14.2739 14.7142 14.2739 14.7077 14.2739 14.7013C14.2739 14.6948 14.2739 14.6883 14.2739 14.6819C14.2739 14.6754 14.2739 14.669 14.2739 14.6626C14.2739 14.6562 14.2739 14.6498 14.2739 14.6434C14.2739 14.637 14.2739 14.6306 14.2739 14.6243C14.2739 14.6179 14.2739 14.6116 14.2739 14.6053C14.2739 14.5989 14.2739 14.5926 14.2739 14.5863C14.2739 14.58 14.2739 14.5738 14.2739 14.5675C14.2739 14.5612 14.2739 14.555 14.2739 14.5488C14.2739 14.5425 14.2739 14.5363 14.2739 14.5301C14.2739 14.5239 14.2739 14.5177 14.2739 14.5116C14.2739 14.5054 14.2739 14.4992 14.2739 14.4931C14.2739 14.487 14.2739 14.4808 14.2739 14.4747C14.2739 14.4686 14.2739 14.4625 14.2739 14.4564C14.2739 14.4503 14.2739 14.4443 14.2739 14.4382C14.2739 14.4322 14.2739 14.4261 14.2739 14.4201C14.2739 14.4141 14.2739 14.4081 14.2739 14.4021C14.2739 14.3961 14.2739 14.3901 14.2739 14.3842C14.2739 14.3782 14.2739 14.3723 14.2739 14.3663C14.2739 14.3604 14.2739 14.3545 14.2739 14.3486C14.2739 14.3427 14.2739 14.3368 14.2739 14.3309C14.2739 14.3251 14.2739 14.3192 14.2739 14.3134C14.2739 14.3075 14.2739 14.3017 14.2739 14.2959C14.2739 14.2901 14.2739 14.2843 14.2739 14.2785C14.2739 14.2727 14.2739 14.2669 14.2739 14.2612C14.2739 14.2554 14.2739 14.2497 14.2739 14.244C14.2739 14.2383 14.2739 14.2325 14.2739 14.2268C14.2739 14.2212 14.2739 14.2155 14.2739 14.2098C14.2739 14.2041 14.2739 14.1985 14.2739 14.1929C14.2739 14.1872 14.2739 14.1816 14.2739 14.176C14.2739 14.1704 14.2739 14.1648 14.2739 14.1592C14.2739 14.1536 14.2739 14.1481 14.2739 14.1425C14.2739 14.137 14.2739 14.1314 14.2739 14.1259C14.2739 14.1204 14.2739 14.1149 14.2739 14.1094C14.2739 14.1039 14.2739 14.0984 14.2739 14.0929C14.2739 14.0875 14.2739 14.082 14.2739 14.0766C14.2739 14.0712 14.2739 14.0657 14.2739 14.0603C14.2739 14.0549 14.2739 14.0495 14.2739 14.0441C14.2739 14.0388 14.2739 14.0334 14.2739 14.028C14.2739 14.0227 14.2739 14.0174 14.2739 14.012C14.2739 14.0067 14.2739 14.0014 14.2739 13.9961C14.2739 13.9908 14.2739 13.9855 14.2739 13.9803C14.2739 13.975 14.2739 13.9697 14.2739 13.9645C14.2739 13.9593 14.2739 13.954 14.2739 13.9488C14.2739 13.9436 14.2739 13.9384 14.2739 13.9332C14.2739 13.9281 14.2739 13.9229 14.2739 13.9177C14.2739 13.9126 14.2739 13.9074 14.2739 13.9023C14.2739 13.8972 14.2739 13.8921 14.2739 13.887C14.2739 13.8819 14.2739 13.8768 14.2739 13.8717C14.2739 13.8666 14.2739 13.8616 14.2739 13.8565C14.2739 13.8515 14.2739 13.8465 14.2739 13.8414C14.2739 13.8364 14.2739 13.8314 14.2739 13.8264C14.2739 13.8214 14.2739 13.8165 14.2739 13.8115C14.2739 13.8065 14.2739 13.8016 14.2739 13.7967C14.2739 13.7917 14.2739 13.7868 14.2739 13.7819C14.2739 13.777 14.2739 13.7721 14.2739 13.7672C14.2739 13.7623 14.2739 13.7575 14.2739 13.7526C14.2739 13.7477 14.2739 13.7429 14.2739 13.7381C14.2739 13.7332 14.2739 13.7284 14.2739 13.7236C14.2739 13.7188 14.2739 13.714 14.2739 13.7093C14.2739 13.7045 14.2739 13.6997 14.2739 13.695C14.2739 13.6902 14.2739 13.6855 14.2739 13.6808C14.2739 13.6761 14.2739 13.6713 14.2739 13.6667C14.2739 13.662 14.2739 13.6573 14.2739 13.6526C14.2739 13.6479 14.2739 13.6433 14.2739 13.6386C14.2739 13.634 14.2739 13.6294 14.2739 13.6248C14.2739 13.6201 14.2739 13.6155 14.2739 13.6109C14.2739 13.6064 14.2739 13.6018 14.2739 13.5972C14.2739 13.5927 14.2739 13.5881 14.2739 13.5836C14.2739 13.579 14.2739 13.5745 14.2739 13.57C14.2739 13.5655 14.2739 13.561 14.2739 13.5565C14.2739 13.552 14.2739 13.5475 14.2739 13.5431C14.2739 13.5386 14.2739 13.5342 14.2739 13.5297C14.2739 13.5253 14.2739 13.5209 14.2739 13.5165C14.2739 13.5121 14.2739 13.5077 14.2739 13.5033C14.2739 13.4989 14.2739 13.4945 14.2739 13.4902C14.2739 13.4858 14.2739 13.4815 14.2739 13.4771C14.2739 13.4728 14.2739 13.4685 14.2739 13.4642C14.2739 13.4599 14.2739 13.4556 14.2739 13.4513C14.2739 13.447 14.2739 13.4428 14.2739 13.4385C14.2739 13.4342 14.2739 13.43 14.2739 13.4258C14.2739 13.4215 14.2739 13.4173 14.2739 13.4131C14.2739 13.4089 14.2739 13.4047 14.2739 13.4005C14.2739 13.3964 14.2739 13.3922 14.2739 13.388C14.2739 13.3839 14.2739 13.3797 14.2739 13.3756C14.2739 13.3715 14.2739 13.3674 14.2739 13.3632C14.2739 13.3591 14.2739 13.355 14.2739 13.351C14.2739 13.3469 14.2739 13.3428 14.2739 13.3388C14.2739 13.3347 14.2739 13.3307 14.2739 13.3266C14.2739 13.3226 14.2739 13.3186 14.2739 13.3146C14.2739 13.3106 14.2739 13.3066 14.2739 13.3026C14.2739 13.2986 14.2739 13.2946 14.2739 13.2907C14.2739 13.2867 14.2739 13.2828 14.2739 13.2788C14.2739 13.2749 14.2739 13.271 14.2739 13.2671C14.2739 13.2631 14.2739 13.2592 14.2739 13.2554C14.2739 13.2515 14.2739 13.2476 14.2739 13.2437C14.2739 13.2399 14.2739 13.236 14.2739 13.2322C14.2739 13.2283 14.2739 13.2245 14.2739 13.2207C14.2739 13.2169 14.2739 13.2131 14.2739 13.2093C14.2739 13.2055 14.2739 13.2017 14.2739 13.198C14.2739 13.1942 14.2739 13.1904 14.2739 13.1867C14.2739 13.1829 14.2739 13.1792 14.2739 13.1755C14.2739 13.1718 14.2739 13.1681 14.2739 13.1644C14.2739 13.1607 14.2739 13.157 14.2739 13.1533C14.2739 13.1496 14.2739 13.146 14.2739 13.1423C14.2739 13.1387 14.2739 13.135 14.2739 13.1314C14.2739 13.1278 14.2739 13.1242 14.2739 13.1206C14.2739 13.117 14.2739 13.1134 14.2739 13.1098C14.2739 13.1062 14.2739 13.1027 14.2739 13.0991C14.2739 13.0955 14.2739 13.092 14.2739 13.0885C14.2739 13.0849 14.2739 13.0814 14.2739 13.0779C14.2739 13.0744 14.2739 13.0709 14.2739 13.0674C14.2739 13.0639 14.2739 13.0604 14.2739 13.057C14.2739 13.0535 14.2739 13.05 14.2739 13.0466C14.2739 13.0432 14.2739 13.0397 14.2739 13.0363C14.2739 13.0329 14.2739 13.0295 14.2739 13.0261C14.2739 13.0227 14.2739 13.0193 14.2739 13.0159C14.2739 13.0125 14.2739 13.0092 14.2739 13.0058C14.2739 13.0025 14.2739 12.9991 14.2739 12.9958C14.2739 12.9925 14.2739 12.9892 14.2739 12.9858C14.2739 12.9825 14.2739 12.9792 14.2739 12.976C14.2739 12.9727 14.2739 12.9694 14.2739 12.9661C14.2739 12.9629 14.2739 12.9596 14.2739 12.9564C14.2739 12.9531 14.2739 12.9499 14.2739 12.9467C14.2739 12.9435 14.2739 12.9402 14.2739 12.9371C14.2739 12.9339 14.2739 12.9307 14.2739 12.9275C14.2739 12.9243 14.2739 12.9211 14.2739 12.918C14.2739 12.9148 14.2739 12.9117 14.2739 12.9086C14.2739 12.9054 14.2739 12.9023 14.2739 12.8992C14.2739 12.8961 14.2739 12.893 14.2739 12.8899C14.2739 12.8868 14.2739 12.8837 14.2739 12.8807C14.2739 12.8776 14.2739 12.8745 14.2739 12.8715C14.2739 12.8684 14.2739 12.8654 14.2739 12.8624C14.2739 12.8593 14.2739 12.8563 14.2739 12.8533C14.2739 12.8503 14.2739 12.8473 14.2739 12.8443C14.2739 12.8414 14.2739 12.8384 14.2739 12.8354C14.2739 12.8325 14.2739 12.8295 14.2739 12.8266C14.2739 12.8236 14.2739 12.8207 14.2739 12.8178C14.2739 12.8149 14.2739 12.8119 14.2739 12.809C14.2739 12.8061 14.2739 12.8033 14.2739 12.8004C14.2739 12.7975 14.2739 12.7946 14.2739 12.7918C14.2739 12.7889 14.2739 12.7861 14.2739 12.7832C14.2739 12.7804 14.2739 12.7776 14.2739 12.7747C14.2739 12.7719 14.2739 12.7691 14.2739 12.7663C14.2739 12.7635 14.2739 12.7607 14.2739 12.758C14.2739 12.7552 14.2739 12.7524 14.2739 12.7497C14.2739 12.7469 14.2739 12.7442 14.2739 12.7414C14.2739 12.7387 14.2739 12.736 14.2739 12.7332C14.2739 12.7305 14.2739 12.7278 14.2739 12.7251C14.2739 12.7224 14.2739 12.7198 14.2739 12.7171C14.2739 12.7144 14.2739 12.7117 14.2739 12.7091C14.2739 12.7064 14.2739 12.7038 14.2739 12.7011C14.2739 12.6985 14.2739 12.6959 14.2739 12.6933C14.2739 12.6906 14.2739 12.688 14.2739 12.6854C14.2739 12.6828 14.2739 12.6803 14.2739 12.6777C14.2739 12.6751 14.2739 12.6725 14.2739 12.67C14.2739 12.6674 14.2739 12.6649 14.2739 12.6623C14.2739 12.6598 14.2739 12.6573 14.2739 12.6548C14.2739 12.6522 14.2739 12.6497 14.2739 12.6472C14.2739 12.6447 14.2739 12.6422 14.2739 12.6398C14.2739 12.6373 14.2739 12.6348 14.2739 12.6324C14.2739 12.6299 14.2739 12.6274 14.2739 12.625C14.2739 12.6226 14.2739 12.6201 14.2739 12.6177C14.2739 12.6153 14.2739 12.6129 14.2739 12.6105C14.2739 12.6081 14.2739 12.6057 14.2739 12.6033C14.2739 12.6009 14.2739 12.5985 14.2739 12.5962C14.2739 12.5938 14.2739 12.5914 14.2739 12.5891C14.2739 12.5867 14.2739 12.5844 14.2739 12.5821C14.2739 12.5797 14.2739 12.5774 14.2739 12.5751C14.2739 12.5728 14.2739 12.5705 14.2739 12.5682C14.2739 12.5659 14.2739 12.5636 14.2739 12.5614C14.2739 12.5591 14.2739 12.5568 14.2739 12.5546C14.2739 12.5523 14.2739 12.5501 14.2739 12.5478C14.2739 12.5456 14.2739 12.5434 14.2739 12.5412C14.2739 12.5389 14.2739 12.5367 14.2739 12.5345C14.2739 12.5323 14.2739 12.5301 14.2739 12.528C14.2739 12.5258 14.2739 12.5236 14.2739 12.5214C14.2739 12.5193 14.2739 12.5171 14.2739 12.515C14.2739 12.5128 14.2739 12.5107 14.2739 12.5086C14.2739 12.5064 14.2739 12.5043 14.2739 12.5022C14.2739 12.5001 14.2739 12.498 14.2739 12.4959C14.2739 12.4938 14.2739 12.4917 14.2739 12.4897C14.2739 12.4876 14.2739 12.4855 14.2739 12.4835C14.2739 12.4814 14.2739 12.4794 14.2739 12.4773C14.2739 12.4753 14.2739 12.4732 14.2739 12.4712C14.2739 12.4692 14.2739 12.4672 14.2739 12.4652C14.2739 12.4632 14.2739 12.4612 14.2739 12.4592C14.2739 12.4572 14.2739 12.4552 14.2739 12.4533C14.2739 12.4513 14.2739 12.4493 14.2739 12.4474C14.2739 12.4454 14.2739 12.4435 14.2739 12.4415C14.2739 12.4396 14.2739 12.4377 14.2739 12.4358C14.2739 12.4338 14.2739 12.4319 14.2739 12.43C14.2739 12.4281 14.2739 12.4262 14.2739 12.4243C14.2739 12.4224 14.2739 12.4206 14.2739 12.4187C14.2739 12.4168 14.2739 12.415 14.2739 12.4131C14.2739 12.4113 14.2739 12.4094 14.2739 12.4076C14.2739 12.4057 14.2739 12.4039 14.2739 12.4021C14.2739 12.4003 14.2739 12.3985 14.2739 12.3967C14.2739 12.3949 14.2739 12.3931 14.2739 12.3913C14.2739 12.3895 14.2739 12.3877 14.2739 12.3859C14.2739 12.3842 14.2739 12.3824 14.2739 12.3807C14.2739 12.3789 14.2739 12.3772 14.2739 12.3754C14.2739 12.3737 14.2739 12.372 14.2739 12.3702C14.2739 12.3685 14.2739 12.3668 14.2739 12.3651C14.2739 12.3634 14.2739 12.3617 14.2739 12.36C14.2739 12.3583 14.2739 12.3566 14.2739 12.355C14.2739 12.3533 14.2739 12.3516 14.2739 12.35C14.2739 12.3483 14.2739 12.3466 14.2739 12.345C14.2739 12.3434 14.2739 12.3417 14.2739 12.3401C14.2739 12.3385 14.2739 12.3368 14.2739 12.3352C14.2739 12.3336 14.2739 12.332 14.2739 12.3304C14.2739 12.3288 14.2739 12.3272 14.2739 12.3257C14.2739 12.3241 14.2739 12.3225 14.2739 12.3209C14.2739 12.3194 14.2739 12.3178 14.2739 12.3163C14.2739 12.3147 14.2739 12.3132 14.2739 12.3116C14.2739 12.3101 14.2739 12.3086 14.2739 12.3071C14.2739 12.3055 14.2739 12.304 14.2739 12.3025C14.2739 12.301 14.2739 12.2995 14.2739 12.298C14.2739 12.2965 14.2739 12.2951 14.2739 12.2936C14.2739 12.2921 14.2739 12.2906 14.2739 12.2892C14.2739 12.2877 14.2739 12.2863 14.2739 12.2848C14.2739 12.2834 14.2739 12.2819 14.2739 12.2805C14.2739 12.2791 14.2739 12.2776 14.2739 12.2762C14.2739 12.2748 14.2739 12.2734 14.2739 12.272C14.2739 12.2706 14.2739 12.2692 14.2739 12.2678C14.2739 12.2664 14.2739 12.265 14.2739 12.2637C14.2739 12.2623 14.2739 12.2609 14.2739 12.2596C14.2739 12.2582 14.2739 12.2569 14.2739 12.2555C14.2739 12.2542 14.2739 12.2528 14.2739 12.2515C14.2739 12.2502 14.2739 12.2488 14.2739 12.2475C14.2739 12.2462 14.2739 12.2449 14.2739 12.2436C14.2739 12.2423 14.2739 12.241 14.2739 12.2397C14.2739 12.2384 14.2739 12.2371 14.2739 12.2359C14.2739 12.2346 14.2739 12.2333 14.2739 12.2321C14.2739 12.2308 14.2739 12.2296 14.2739 12.2283C14.2739 12.2271 14.2739 12.2258 14.2739 12.2246C14.2739 12.2233 14.2739 12.2221 14.2739 12.2209C14.2739 12.2197 14.2739 12.2185 14.2739 12.2173C14.2739 12.2161 14.2739 12.2149 14.2739 12.2137C14.2739 12.2125 14.2739 12.2113 14.2739 12.2101C14.2739 12.2089 14.2739 12.2077 14.2739 12.2066C14.2739 12.2054 14.2739 12.2042 14.2739 12.2031C14.2739 12.2019 14.2739 12.2008 14.2739 12.1997C14.2739 12.1985 14.2739 12.1974 14.2739 12.1962C14.2739 12.1951 14.2739 12.194 14.2739 12.1929C14.2739 12.1918 14.2739 12.1907 14.2739 12.1896C14.2739 12.1885 14.2739 12.1874 14.2739 12.1863C14.2739 12.1852 14.2739 12.1841 14.2739 12.183C14.2739 12.1819 14.2739 12.1809 14.2739 12.1798C14.2739 12.1787 14.2739 12.1777 14.2739 12.1766C14.2739 12.1756 14.2739 12.1745 14.2739 12.1735C14.2739 12.1725 14.2739 12.1714 14.2739 12.1704C14.2739 12.1694 14.2739 12.1684 14.2739 12.1673C14.2739 12.1663 14.2739 12.1653 14.2739 12.1643C14.2739 12.1633 14.2739 12.1623 14.2739 12.1613C14.2739 12.1603 14.2739 12.1594 14.2739 12.1584C14.2739 12.1574 14.2739 12.1564 14.2739 12.1555C14.2739 12.1545 14.2739 12.1535 14.2739 12.1526C14.2739 12.1516 14.2739 12.1507 14.2739 12.1497C14.2739 12.1488 14.2739 12.1479 14.2739 12.1469C14.2739 12.146 14.2739 12.1451 14.2739 12.1442C14.2739 12.1432 14.2739 12.1423 14.2739 12.1414C14.2739 12.1405 14.2739 12.1396 14.2739 12.1387C14.2739 12.1378 14.2739 12.1369 14.2739 12.1361C14.2739 12.1352 14.2739 12.1343 14.2739 12.1334C14.2739 12.1326 14.2739 12.1317 14.2739 12.1308C14.2739 12.13 14.2739 12.1291 14.2739 12.1283C14.2739 12.1274 14.2739 12.1266 14.2739 12.1257C14.2739 12.1249 14.2739 12.1241 14.2739 12.1232C14.2739 12.1224 14.2739 12.1216 14.2739 12.1208C14.2739 12.12 14.2739 12.1191 14.2739 12.1183C14.2739 12.1175 14.2739 12.1167 14.2739 12.1159C14.2739 12.1151 14.2739 12.1144 14.2739 12.1136C14.2739 12.1128 14.2739 12.112 14.2739 12.1112C14.2739 12.1105 14.2739 12.1097 14.2739 12.1089C14.2739 12.1082 14.2739 12.1074 14.2739 12.1067C14.2739 12.1059 14.2739 12.1052 14.2739 12.1044C14.2739 12.1037 14.2739 12.103 14.2739 12.1022C14.2739 12.1015 14.2739 12.1008 14.2739 12.1C14.2739 12.0993 14.2739 12.0986 14.2739 12.0979C14.2739 12.0972 14.2739 12.0965 14.2739 12.0958C14.2739 12.0951 14.2739 12.0944 14.2739 12.0937C14.2739 12.093 14.2739 12.0923 14.2739 12.0917C14.2739 12.091 14.2739 12.0903 14.2739 12.0896C14.2739 12.089 14.2739 12.0883 14.2739 12.0876C14.2739 12.087 14.2739 12.0863 14.2739 12.0857C14.2739 12.085 14.2739 12.0844 14.2739 12.0837C14.2739 12.0831 14.2739 12.0825 14.2739 12.0818C14.2739 12.0812 14.2739 12.0806 14.2739 12.08C14.2739 12.0794 14.2739 12.0787 14.2739 12.0781C14.2739 12.0775 14.2739 12.0769 14.2739 12.0763C14.2739 12.0757 14.2739 12.0751 14.2739 12.0745C14.2739 12.0739 14.2739 12.0733 14.2739 12.0728C14.2739 12.0722 14.2739 12.0716 14.2739 12.071C14.2739 12.0705 14.2739 12.0699 14.2739 12.0693C14.2739 12.0688 14.2739 12.0682 14.2739 12.0676C14.2739 12.0671 14.2739 12.0665 14.2739 12.066C14.2739 12.0655 14.2739 12.0649 14.2739 12.0644C14.2739 12.0638 14.2739 12.0633 14.2739 12.0628C14.2739 12.0622 14.2739 12.0617 14.2739 12.0612C14.2739 12.0607 14.2739 12.0602 14.2739 12.0597C14.2739 12.0592 14.2739 12.0586 14.2739 12.0581C14.2739 12.0576 14.2739 12.0571 14.2739 12.0567C14.2739 12.0562 14.2739 12.0557 14.2739 12.0552C14.2739 12.0547 14.2739 12.0542 14.2739 12.0538C14.2739 12.0533 14.2739 12.0528 14.2739 12.0523C14.2739 12.0519 14.2739 12.0514 14.2739 12.0509C14.2739 12.0505 14.2739 12.05 14.2739 12.0496C14.2739 12.0491 14.2739 12.0487 14.2739 12.0482C14.2739 12.0478 14.2739 12.0474 14.2739 12.0469C14.2739 12.0465 14.2739 12.0461 14.2739 12.0456C14.2739 12.0452 14.2739 12.0448 14.2739 12.0444C14.2739 12.044 14.2739 12.0435 14.2739 12.0431C14.2739 12.0427 14.2739 12.0423 14.2739 12.0419C14.2739 12.0415 14.2739 12.0411 14.2739 12.0407C14.2739 12.0403 14.2739 12.0399 14.2739 12.0395C14.2739 12.0391 14.2739 12.0388 14.2739 12.0384C14.2739 12.038 14.2739 12.0376 14.2739 12.0373C14.2739 12.0369 14.2739 12.0365 14.2739 12.0361C14.2739 12.0358 14.2739 12.0354 14.2739 12.0351C14.2739 12.0347 14.2739 12.0344 14.2739 12.034C14.2739 12.0336 14.2739 12.0333 14.2739 12.033C14.2739 12.0326 14.2739 12.0323 14.2739 12.0319C14.2739 12.0316 14.2739 12.0313 14.2739 12.0309C14.2739 12.0306 14.2739 12.0303 14.2739 12.03C14.2739 12.0296 14.2739 12.0293 14.2739 12.029C14.2739 12.0287 14.2739 12.0284 14.2739 12.0281C14.2739 12.0278 14.2739 12.0275 14.2739 12.0272C14.2739 12.0269 14.2739 12.0266 14.2739 12.0263C14.2739 12.026 14.2739 12.0257 14.2739 12.0254C14.2739 12.0251 14.2739 12.0248 14.2739 12.0245C14.2739 12.0242 14.2739 12.024 14.2739 12.0237C14.2739 12.0234 14.2739 12.0231 14.2739 12.0229C14.2739 12.0226 14.2739 12.0223 14.2739 12.0221C14.2739 12.0218 14.2739 12.0216 14.2739 12.0213C14.2739 12.021 14.2739 12.0208 14.2739 12.0205C14.2739 12.0203 14.2739 12.02 14.2739 12.0198C14.2739 12.0196 14.2739 12.0193 14.2739 12.0191C14.2739 12.0188 14.2739 12.0186 14.2739 12.0184C14.2739 12.0181 14.2739 12.0179 14.2739 12.0177C14.2739 12.0175 14.2739 12.0172 14.2739 12.017C14.2739 12.0168 14.2739 12.0166 14.2739 12.0164C14.2739 12.0161 14.2739 12.0159 14.2739 12.0157C14.2739 12.0155 14.2739 12.0153 14.2739 12.0151C14.2739 12.0149 14.2739 12.0147 14.2739 12.0145C14.2739 12.0143 14.2739 12.0141 14.2739 12.0139C14.2739 12.0137 14.2739 12.0135 14.2739 12.0133C14.2739 12.0131 14.2739 12.013 14.2739 12.0128C14.2739 12.0126 14.2739 12.0124 14.2739 12.0122C14.2739 12.0121 14.2739 12.0119 14.2739 12.0117C14.2739 12.0115 14.2739 12.0114 14.2739 12.0112C14.2739 12.011 14.2739 12.0109 14.2739 12.0107C14.2739 12.0105 14.2739 12.0104 14.2739 12.0102C14.2739 12.0101 14.2739 12.0099 14.2739 12.0098C14.2739 12.0096 14.2739 12.0095 14.2739 12.0093C14.2739 12.0092 14.2739 12.009 14.2739 12.0089C14.2739 12.0087 14.2739 12.0086 14.2739 12.0085C14.2739 12.0083 14.2739 12.0082 14.2739 12.008C14.2739 12.0079 14.2739 12.0078 14.2739 12.0077C14.2739 12.0075 14.2739 12.0074 14.2739 12.0073C14.2739 12.0071 14.2739 12.007 14.2739 12.0069C14.2739 12.0068 14.2739 12.0067 14.2739 12.0065C14.2739 12.0064 14.2739 12.0063 14.2739 12.0062C14.2739 12.0061 14.2739 12.006 14.2739 12.0059C14.2739 12.0058 14.2739 12.0057 14.2739 12.0055C14.2739 12.0054 14.2739 12.0053 14.2739 12.0052C14.2739 12.0051 14.2739 12.005 14.2739 12.0049C14.2739 12.0048 14.2739 12.0047 14.2739 12.0047C14.2739 12.0046 14.2739 12.0045 14.2739 12.0044C14.2739 12.0043 14.2739 12.0042 14.2739 12.0041C14.2739 12.004 14.2739 12.004 14.2739 12.0039C14.2739 12.0038 14.2739 12.0037 14.2739 12.0036C14.2739 12.0035 14.2739 12.0035 14.2739 12.0034C14.2739 12.0033 14.2739 12.0032 14.2739 12.0032C14.2739 12.0031 14.2739 12.003 14.2739 12.003C14.2739 12.0029 14.2739 12.0028 14.2739 12.0028C14.2739 12.0027 14.2739 12.0026 14.2739 12.0026C14.2739 12.0025 14.2739 12.0024 14.2739 12.0024C14.2739 12.0023 14.2739 12.0023 14.2739 12.0022C14.2739 12.0022 14.2739 12.0021 14.2739 12.002C14.2739 12.002 14.2739 12.0019 14.2739 12.0019C14.2739 12.0018 14.2739 12.0018 14.2739 12.0017C14.2739 12.0017 14.2739 12.0016 14.2739 12.0016C14.2739 12.0016 14.2739 12.0015 14.2739 12.0015C14.2739 12.0014 14.2739 12.0014 14.2739 12.0013C14.2739 12.0013 14.2739 12.0013 14.2739 12.0012C14.2739 12.0012 14.2739 12.0011 14.2739 12.0011C14.2739 12.0011 14.2739 12.001 14.2739 12.001C14.2739 12.001 14.2739 12.0009 14.2739 12.0009C14.2739 12.0009 14.2739 12.0008 14.2739 12.0008C14.2739 12.0008 14.2739 12.0008 14.2739 12.0007C14.2739 12.0007 14.2739 12.0007 14.2739 12.0007C14.2739 12.0006 14.2739 12.0006 14.2739 12.0006C14.2739 12.0006 14.2739 12.0005 14.2739 12.0005C14.2739 12.0005 14.2739 12.0005 14.2739 12.0005C14.2739 12.0004 14.2739 12.0004 14.2739 12.0004C14.2739 12.0004 14.2739 12.0004 14.2739 12.0003C14.2739 12.0003 14.2739 12.0003 14.2739 12.0003C14.2739 12.0003 14.2739 12.0003 14.2739 12.0003C14.2739 12.0002 14.2739 12.0002 14.2739 12.0002C14.2739 12.0002 14.2739 12.0002 14.2739 12.0002C14.2739 12.0002 14.2739 12.0002 14.2739 12.0002C14.2739 12.0001 14.2739 12.0001 14.2739 12.0001C14.2739 12.0001 14.2739 12.0001 14.2739 12.0001C14.2739 12.0001 14.2739 12.0001 14.2739 12.0001C14.2739 12.0001 14.2739 12.0001 14.2739 12.0001C14.2739 12.0001 14.2739 12.0001 14.2739 12C14.2739 12 14.2739 12 14.2739 12C14.2739 12 14.2739 12 14.2739 12C14.2739 12 14.2739 12 14.2739 12C14.2739 12 14.2739 12 14.2739 12C14.2739 12 14.2739 12 14.2739 12C14.2739 12 14.2739 12 14.2739 12C14.2739 12 14.2739 12 14.2739 12C14.2739 12 14.2739 12 14.2739 12C14.2739 12 14.2739 12 14.2739 12C14.2739 12 14.2739 12 14.2739 12H12.7739ZM14.2739 12V7H11.2739V12H14.2739Z" fill="#787878"/>
</svg>
