<svg width="24" height="24" fill="none" xmlns="http://www.w3.org/2000/svg"><path d="M18.49 12.364a1 1 0 0 0 1.012-1.725l-1.012 1.725ZM6.443 4.137l-.516.856.01.006.506-.862Zm-1.019.023-.554-.832.554.832Zm-.414.932-.989.146a1 1 0 0 0 .049.194l.94-.34Zm1.379 6.75a1 1 0 0 0 1.88-.68l-1.88.68Zm13.113.522a1 1 0 0 0-1.012-1.725l1.012 1.725ZM6.443 18.867l-.506-.863-.01.006.516.857Zm-1.019-.024-.554.832.554-.832Zm-.414-.931-.94-.34a1 1 0 0 0-.049.193l.99.147Zm3.26-6.07a1 1 0 0 0-1.881-.68l1.88.68Zm10.726.66a1 1 0 0 0 0-2v2Zm-11.667-2a1 1 0 1 0 0 2v-2Zm12.173.137L6.95 3.274 5.937 5l12.553 7.365 1.012-1.725ZM6.96 3.28a1.952 1.952 0 0 0-2.09.048l1.11 1.664a.048.048 0 0 1-.052.001L6.96 3.28Zm-2.09.048a1.952 1.952 0 0 0-.848 1.91L6 4.945a.048.048 0 0 1-.021.047l-1.11-1.664ZM4.07 5.432l2.319 6.41 1.88-.68-2.318-6.41-1.881.68Zm14.42 5.207L5.937 18.004 6.95 19.73l12.553-7.365-1.012-1.725ZM5.927 18.01a.048.048 0 0 1 .052.001l-1.11 1.665a1.952 1.952 0 0 0 2.09.047L5.927 18.01Zm.052.001c.015.01.023.029.02.047l-1.978-.293c-.11.747.22 1.491.849 1.91l1.109-1.664Zm-.028.24 2.319-6.41-1.881-.68-2.319 6.41 1.88.68Zm13.045-7.75H7.33v2h11.667v-2Z" fill="#9D9B9E"/></svg>