<svg aria-hidden="true" height="16" width="16" data-view-component="true" class="octicon octicon-people" xmlns="http://www.w3.org/2000/svg"><path fill="#848d97" d="M2 5.5a3.5 3.5 0 1 1 5.9 2.55 5.5 5.5 0 0 1 3.03 4.08.75.75 0 1 1-1.48.24 4 4 0 0 0-7.9 0 .75.75 0 0 1-1.48-.24A5.5 5.5 0 0 1 3.1 8.05 3.5 3.5 0 0 1 2 5.5ZM11 4a3 3 0 0 1 2.22 5.02 5.01 5.01 0 0 1 2.56 3.01.75.75 0 0 1-.88.95.75.75 0 0 1-.55-.51 3.5 3.5 0 0 0-2.53-2.37.75.75 0 0 1-.57-.73v-.35a.75.75 0 0 1 .42-.68A1.5 1.5 0 0 0 11 5.5.75.75 0 0 1 11 4Zm-5.5-.5a2 2 0 1 0 0 4 2 2 0 0 0 0-4Z"/></svg>