<svg aria-hidden="true" height="16" width="16" data-view-component="true" class="octicon octicon-key" xmlns="http://www.w3.org/2000/svg"><path fill="#848d97" d="M10.5 0a5.5 5.5 0 1 1-1.29 10.85l-.93.93a.75.75 0 0 1-.53.22H7v.75a.75.75 0 0 1-.22.53l-.5.5a.75.75 0 0 1-.53.22H5v.75a.75.75 0 0 1-.22.53l-.5.5a.75.75 0 0 1-.53.22h-2A1.75 1.75 0 0 1 0 14.25v-2c0-.2.08-.39.22-.53l4.93-4.93A5.5 5.5 0 0 1 10.5 0Zm-4 5.5a4 4 0 0 0 .2 1.27.75.75 0 0 1-.18.77L1.5 12.56v1.69c0 .14.11.25.25.25h1.69l.06-.06v-1.19a.75.75 0 0 1 .75-.75h1.19l.06-.06v-1.19a.75.75 0 0 1 .75-.75h1.19l1.02-1.02a.75.75 0 0 1 .77-.19A4 4 0 1 0 6.5 5.5ZM11 6a1 1 0 1 1 0-2 1 1 0 0 1 0 2Z"/></svg>